<?xml version="1.0" encoding="UTF-8"?>
<svg width="28px" height="28px" viewBox="0 0 28 28" version="1.1" xmlns="http://www.w3.org/2000/svg" xmlns:xlink="http://www.w3.org/1999/xlink">
    <!-- Generator: Sketch 51.3 (57544) - http://www.bohemiancoding.com/sketch -->
    <title>Fill 1</title>
    <desc>Created with Sketch.</desc>
    <defs></defs>
    <g id="Page-1" stroke="none" stroke-width="1" fill="none" fill-rule="evenodd">
        <g id="LP-cao-đẳng-Fix" transform="translate(-150.000000, -9138.000000)" fill="#FFF8DC">
            <g id="Group-32" transform="translate(0.000000, 2557.000000)">
                <g id="Group-29" transform="translate(0.000000, 4599.000000)">
                    <g id="Group-28" transform="translate(0.000000, 489.000000)">
                        <g id="Footer" transform="translate(0.000000, 1163.000000)">
                            <g id="Group-8" transform="translate(150.000000, 40.000000)">
                                <g id="Group-3" transform="translate(0.000000, 290.000000)">
                                    <path d="M6.66533268,14.6994336 C6.70224678,16.5644267 6.94809468,18.4194935 7.39820058,20.2296869 C6.3098089,20.7206689 5.28761649,21.3470093 4.35598668,22.0938597 C2.60469981,20.0118009 1.57865193,17.4162004 1.43280023,14.6993515 L6.66533268,14.6993515 L6.66533268,14.6994336 Z M4.35598668,5.90343245 C5.28753446,6.65077506 6.30972686,7.27760766 7.39820058,7.76899979 C6.94801264,9.57927527 6.70216475,11.43426 6.66533268,13.2992531 L1.43280023,13.2992531 C1.57832381,10.5819941 2.60445372,7.98590142 4.35598668,5.90343245 Z M10.1786525,1.99165578 C9.10215537,3.2924093 8.29226005,4.79242684 7.79515019,6.40606343 L7.79515019,6.4039305 C6.91577433,5.99194866 6.08610946,5.48144228 5.32206965,4.88200951 C6.70118037,3.56329023 8.36182262,2.57492757 10.1786525,1.99165578 Z M13.2971556,1.49599781 L13.2971556,7.72699766 C11.8695643,7.66374835 10.4585434,7.39500034 9.10765147,6.92895715 C10.0638087,4.00849642 11.5813883,1.94546984 13.2971556,1.49599781 Z M13.2971556,13.2993352 L8.06462311,13.2993352 C8.10457237,11.6106362 8.32490852,9.93104312 8.72194016,8.28918635 C10.1986682,8.78755149 11.7396267,9.06999942 13.2971556,9.12783438 L13.2971556,13.2993352 Z M13.2971556,18.8709344 C11.7396267,18.9292615 10.1986682,19.2121197 8.72194016,19.710977 C8.32482649,18.068628 8.10449034,16.3886248 8.06462311,14.6994336 L13.2971556,14.6994336 L13.2971556,18.8709344 Z M13.2971556,26.5020326 C11.5814703,26.0526426 10.0638907,23.989616 9.10765147,21.0691553 C10.4585434,20.6032762 11.8695643,20.3347743 13.2971556,20.2717711 L13.2971556,26.5020326 Z M5.32198762,23.1103605 C6.08627352,22.5124864 6.91593839,22.0032926 7.79506816,21.5927053 L7.79506816,21.5905724 C8.29267021,23.2027324 9.10256553,24.7012733 10.1785705,26.0007963 C8.36182262,25.4175245 6.70118037,24.4291618 5.32198762,23.1103605 Z M14.6971022,20.2716891 C16.1246114,20.3349384 17.5357144,20.6036864 18.8866063,21.0697296 C17.9303671,23.9902723 16.4127875,26.0532989 14.6971022,26.5026889 L14.6971022,20.2716891 Z M14.6971022,14.6994336 L19.9296347,14.6994336 C19.8896854,16.3881326 19.6692673,18.0677256 19.2723176,19.7095824 C17.7955896,19.2112173 16.2545491,18.9287693 14.6971022,18.8709344 L14.6971022,14.6994336 Z M14.6971022,9.12783438 C16.2545491,9.0695072 17.7956717,8.7866491 19.2723176,8.28779175 C19.6694313,9.93005869 19.8897675,11.610144 19.9296347,13.2993352 L14.6971022,13.2993352 L14.6971022,9.12783438 Z M14.6971022,1.49673612 C16.4127875,1.94612612 17.9303671,4.00915271 18.8866063,6.92969547 C17.5357144,7.39549255 16.1246114,7.66399446 14.6971022,7.72699766 L14.6971022,1.49673612 Z M22.6722702,4.88422446 C21.9082304,5.4835752 21.0785655,5.99416361 20.1991896,6.40606343 C19.7018337,4.79316516 18.8919384,3.29388593 17.8156873,1.99370666 C19.6324352,2.57706049 21.2930774,3.56542315 22.6722702,4.88422446 Z M26.5614576,13.2993352 L21.3289251,13.2993352 C21.292011,11.4343421 21.0461631,9.57927527 20.5960572,7.76908183 C21.6844489,7.27809987 22.7066413,6.65175949 23.6382711,5.90490908 C25.389558,7.98696788 26.4156059,10.5824863 26.5614576,13.2993352 Z M23.6382711,22.0952543 C22.7067233,21.3479117 21.6845309,20.7210791 20.5960572,20.2296869 C21.0462452,18.4194115 21.2920931,16.5644267 21.3289251,14.6994336 L26.5614576,14.6994336 C26.415934,17.4166926 25.3898041,20.0127853 23.6382711,22.0952543 Z M17.8156053,26.0028471 C18.8916102,24.7033241 19.7015056,23.2047832 20.1991076,21.5926233 L20.1991076,21.5904904 C21.0784835,22.0024722 21.9081483,22.5129786 22.6721882,23.1123293 C21.2930774,24.4312127 19.6324352,25.4195753 17.8156053,26.0028471 Z M3.74419702,23.5338273 C3.77602517,23.5631139 3.81072442,23.5892012 3.84780259,23.6115148 C6.48273094,26.4130242 10.1582267,28.0012298 14.0041016,27.9999993 C17.8499764,27.9987688 21.5244058,26.4082662 24.1576115,23.6051981 C24.1923928,23.5849354 24.2252053,23.5614732 24.2556389,23.5352219 C24.2786077,23.502982 24.2987874,23.4687732 24.3158499,23.4330058 C29.22805,18.1042314 29.22805,9.89724453 24.3158499,4.56847016 L24.3130609,4.56707556 C24.2959983,4.53130811 24.2758186,4.49709935 24.2528499,4.46485943 C24.2209397,4.43516261 24.1859943,4.40891128 24.148588,4.38643357 C21.5147261,1.58722119 17.8420194,0 13.9986055,0 C10.1551916,0 6.48240281,1.58722119 3.8486229,4.38643357 C3.81121661,4.40882924 3.77627127,4.43516261 3.74436108,4.46485943 C3.72139231,4.49709935 3.7012126,4.53130811 3.68415008,4.56707556 C-1.22805003,9.89584993 -1.22805003,18.1028368 3.68415008,23.4316112 C3.70113057,23.4673786 3.72122824,23.5015874 3.74419702,23.5338273 Z" id="Fill-1"></path>
                                </g>
                            </g>
                        </g>
                    </g>
                </g>
            </g>
        </g>
    </g>
</svg>