<?xml version="1.0" encoding="UTF-8"?>
<svg width="28px" height="28px" viewBox="0 0 28 28" version="1.1" xmlns="http://www.w3.org/2000/svg" xmlns:xlink="http://www.w3.org/1999/xlink">
    <!-- Generator: Sketch 51.3 (57544) - http://www.bohemiancoding.com/sketch -->
    <title>Fill 1</title>
    <desc>Created with Sketch.</desc>
    <defs></defs>
    <g id="Page-1" stroke="none" stroke-width="1" fill="none" fill-rule="evenodd">
        <g id="LP-cao-đẳng-Fix" transform="translate(-198.000000, -9138.000000)" fill="#FFFFFF">
            <g id="Group-32" transform="translate(0.000000, 2557.000000)">
                <g id="Group-29" transform="translate(0.000000, 4599.000000)">
                    <g id="Group-28" transform="translate(0.000000, 489.000000)">
                        <g id="Footer" transform="translate(0.000000, 1163.000000)">
                            <g id="Group-8" transform="translate(150.000000, 40.000000)">
                                <g id="Group-3" transform="translate(48.000000, 290.000000)">
                                    <path d="M26.5413265,25.4365064 C26.5413265,26.0639724 26.0640223,26.5413292 25.4365015,26.5413292 L18.8400514,26.5413292 L18.8400514,18.840069 L23.4146627,18.840069 L23.4146627,12.812105 L18.8400514,12.812105 L18.8400514,10.7902701 C18.8400514,10.666922 18.9044606,10.6025666 19.0277553,10.6025666 L23.870515,10.6025666 L23.870515,4.57460257 L18.52369,4.57460257 L18.5022381,4.57460257 C15.3112724,4.8588393 12.8121295,7.58858456 12.8121295,10.7902701 L12.8121295,12.812105 L9.14922266,12.812105 L9.14922266,18.840069 L12.8121295,18.840069 L12.8121295,26.5413292 L2.55813553,26.5413292 C1.93066832,26.5413292 1.45336421,26.0639724 1.45336421,25.4365064 L1.45336421,2.55813063 C1.45336421,1.93066462 1.93066832,1.45336143 2.55813553,1.45336143 L25.4419181,1.45336143 C26.0693317,1.45336143 26.5466894,1.93066462 26.5466894,2.55813063 L26.5413265,25.4365064 Z M17.3920502,26.5413292 L14.2654937,26.5413292 L14.2654937,17.3920705 L10.6025869,17.3920705 L10.6025869,14.2654664 L14.2654937,14.2654664 L14.2654937,10.795633 C14.2654937,8.34476154 16.1639842,6.2532082 18.5879919,6.02796399 L22.4279303,6.02796399 L22.4279303,9.15456809 L19.0331719,9.15456809 C18.1107414,9.15456809 17.3920502,9.87320437 17.3920502,10.795633 L17.3920502,14.2654664 L21.9666615,14.2654664 L21.9666615,17.3920705 L17.3920502,17.3920705 L17.3920502,26.5413292 Z M25.4365015,0 L2.55813553,0 C1.12086022,0 0,1.12085807 0,2.55813063 L0,25.441923 C0,26.873779 1.12086022,28 2.55813553,28 L25.4419181,28 C26.8737768,28 28,26.8791419 28,25.441923 L28,2.55813063 C27.9946907,1.12085807 26.8737768,0 25.4365015,0 Z" id="Fill-1"></path>
                                </g>
                            </g>
                        </g>
                    </g>
                </g>
            </g>
        </g>
    </g>
</svg>