<?xml version="1.0" encoding="UTF-8"?>
<svg width="30px" height="23px" viewBox="0 0 30 23" version="1.1" xmlns="http://www.w3.org/2000/svg" xmlns:xlink="http://www.w3.org/1999/xlink">
    <!-- Generator: Sketch 51.3 (57544) - http://www.bohemiancoding.com/sketch -->
    <title>Combined Shape</title>
    <desc>Created with Sketch.</desc>
    <defs></defs>
    <g id="Page-1" stroke="none" stroke-width="1" fill="none" fill-rule="evenodd">
        <g id="LP-cao-đẳng-Fix" transform="translate(-290.000000, -9141.000000)" fill="#FFFFFF">
            <g id="Group-32" transform="translate(0.000000, 2557.000000)">
                <g id="Group-29" transform="translate(0.000000, 4599.000000)">
                    <g id="Group-28" transform="translate(0.000000, 489.000000)">
                        <g id="Footer" transform="translate(0.000000, 1163.000000)">
                            <g id="Group-8" transform="translate(150.000000, 40.000000)">
                                <g id="Group-6" transform="translate(96.000000, 290.000000)">
                                    <path d="M72.2892562,22.1812202 C72.2892562,23.281018 71.3966942,24.1757688 70.2995248,24.1757688 L47.6632231,24.1757688 C46.5661157,24.1757688 45.6735537,23.281018 45.6735537,22.1812202 L45.6735537,6.67841994 C45.6735537,5.57862208 46.5661157,4.68387129 47.6632231,4.68387129 L70.2933884,4.68387129 C71.3904959,4.68387129 72.2829959,5.57862208 72.2829959,6.67841994 L72.2829959,22.1812202 L72.2892562,22.1812202 Z M70.2995248,3 C72.3202479,3 73.9628099,4.65280355 73.9565496,6.67841994 L73.9565496,22.1812202 C73.9565496,24.2068366 72.3139876,25.8534266 70.2933884,25.8534266 L47.6632231,25.8534266 C45.642562,25.8534266 44,24.2068366 44,22.1812202 L44,6.67220639 C44,4.64659001 45.642562,3 47.6632231,3 L70.2995248,3 Z M62.9088434,14.3151075 L70.2335917,7.74579606 C70.5744218,7.43592288 70.6054064,6.90913847 70.2955608,6.5620805 C69.9857153,6.22122001 69.4589779,6.19023269 69.1120129,6.50010587 L59.0109866,15.5669952 L57.040369,13.8069155 C57.0341721,13.800718 57.0279752,13.7945206 57.0279752,13.7883231 C56.9845968,13.7449409 56.9412185,13.7077561 56.8916432,13.6705713 L48.8728408,6.4939084 C48.5258138,6.18403522 47.9990764,6.21502254 47.6892309,6.5620805 C47.3793854,6.90913847 47.4103699,7.43592288 47.7573969,7.74579606 L55.168902,14.3708847 L47.7883815,21.2810566 C47.4537483,21.5971273 47.4351576,22.1239117 47.7512,22.4647722 C47.9185166,22.6383012 48.1416054,22.7312631 48.3646942,22.7312631 C48.5691922,22.7312631 48.7736903,22.6569555 48.9348099,22.5081544 L56.4268749,15.498885 L58.4594616,17.3146799 C58.6205812,17.4572216 58.8188824,17.5253937 59.0171835,17.5253937 C59.2154847,17.5253937 59.4199827,17.4510861 59.5749055,17.3084824 L61.6632643,15.4369104 L69.1120129,22.5143519 C69.2730706,22.6692885 69.4838275,22.743658 69.6882636,22.743658 C69.9113524,22.743658 70.1282443,22.6569555 70.2955608,22.4833646 C70.6116033,22.1487015 70.5992714,21.6157197 70.2645763,21.299649 L62.9088434,14.3151075 Z" id="Combined-Shape"></path>
                                </g>
                            </g>
                        </g>
                    </g>
                </g>
            </g>
        </g>
    </g>
</svg>