<?xml version="1.0" encoding="UTF-8"?>
<svg width="32px" height="24px" viewBox="0 0 32 24" version="1.1" xmlns="http://www.w3.org/2000/svg" xmlns:xlink="http://www.w3.org/1999/xlink">
    <!-- Generator: Sketch 51.3 (57544) - http://www.bohemiancoding.com/sketch -->
    <title>icon youtube</title>
    <desc>Created with Sketch.</desc>
    <defs></defs>
    <g id="Page-1" stroke="none" stroke-width="1" fill="none" fill-rule="evenodd">
        <g id="LP-cao-đẳng-Fix" transform="translate(-242.000000, -9140.000000)" fill="#FFFFFF">
            <g id="Group-32" transform="translate(0.000000, 2557.000000)">
                <g id="Group-29" transform="translate(0.000000, 4599.000000)">
                    <path d="M255.809211,1998.5195 L255.809211,1992.84319 L261.092857,1995.70601 L255.809211,1998.5195 Z M273.764377,1989.66443 C273.773939,1989.77081 273.99975,1992.29708 274,1994.8335 L274,1997.20462 C274,1999.74104 273.773939,2002.26737 273.764377,2002.3737 L273.760752,2002.40612 C273.729502,2002.65535 273.42263,2004.87533 272.361825,2006.01717 C271.088648,2007.40433 269.652596,2007.5549 268.962664,2007.62743 C268.896727,2007.63418 268.836728,2007.64049 268.783228,2007.64749 L268.727354,2007.6533 C264.496887,2007.95792 258.108249,2007.9995 258.044312,2007.99975 L258.034562,2008 L258.02475,2007.99975 C257.700065,2007.99511 250.041687,2007.88173 247.599081,2007.65163 L247.525082,2007.64148 C247.448707,2007.62818 247.336646,2007.61561 247.206522,2007.60082 C246.383278,2007.50756 244.852728,2007.33396 243.6423,2006.02224 C242.533683,2004.86785 242.264123,2002.64087 242.237061,2002.38991 L242.235373,2002.37394 C242.225811,2002.26762 242,1999.74104 242,1997.20462 L242,1994.8335 C242,1992.29708 242.225811,1989.77057 242.235373,1989.66443 L242.238998,1989.63206 C242.270498,1989.38253 242.57712,1987.16254 243.637925,1986.02102 C244.928915,1984.61473 246.372778,1984.44962 247.066585,1984.37034 C247.121022,1984.36409 247.171085,1984.35852 247.216522,1984.35245 L247.272896,1984.34663 C251.541425,1984.04202 257.930313,1984.0005 257.99425,1984.00025 L257.999875,1984 L258.0055,1984.00025 C258.069437,1984.0005 264.458325,1984.04202 268.688729,1984.34663 L268.744666,1984.35245 C268.792291,1984.35877 268.845478,1984.36477 268.903602,1984.37133 C269.605472,1984.45036 271.06496,1984.61523 272.352325,1985.97243 C273.466067,1987.12627 273.735815,1989.39491 273.762939,1989.64995 L273.764377,1989.66443 Z M272.124515,1997.20462 L272.124515,1994.8335 C272.124515,1992.44797 271.911391,1989.99633 271.897204,1989.83802 C271.817392,1989.11443 271.503207,1987.77808 270.995398,1987.2542 L270.987836,1987.24621 C270.170655,1986.38319 269.280287,1986.28262 268.691166,1986.21609 C268.631854,1986.20934 268.576667,1986.20303 268.526168,1986.19678 C264.4117,1985.90231 258.222061,1985.85831 257.999875,1985.85689 C257.777689,1985.85856 251.585863,1985.90231 247.43452,1986.19678 C247.387395,1986.20278 247.336396,1986.2086 247.281709,1986.21491 C246.708963,1986.28039 245.84297,1986.37953 245.021726,1987.274 C244.526355,1987.80729 244.196733,1989.12681 244.101796,1989.84694 C244.081796,1990.07345 243.875235,1992.48856 243.875235,1994.8335 L243.875235,1997.20462 C243.875235,1999.58514 244.087609,2002.03139 244.102546,2002.19917 C244.182358,2002.90847 244.496543,2004.22192 245.004352,2004.7458 L245.021726,2004.76412 C245.759471,2005.56774 246.718963,2005.67654 247.419895,2005.75606 C247.558082,2005.77154 247.689143,2005.78651 247.810517,2005.80607 C250.178624,2006.02391 257.72494,2006.13828 258.042625,2006.14286 C258.32581,2006.14113 264.473449,2006.0962 268.56523,2005.80316 C268.625792,2005.79567 268.692666,2005.78843 268.764916,2005.78094 C269.362599,2005.71831 270.181155,2005.63229 270.978024,2004.76412 C271.494895,2004.20787 271.818392,2002.80332 271.897954,2002.19193 C271.917454,2001.97 272.124515,1999.55228 272.124515,1997.20462 Z M262.925343,1994.58237 C263.34384,1994.80913 263.602587,1995.24308 263.6009,1995.71517 C263.598963,1996.18731 263.336965,1996.61935 262.91728,1996.84295 L255.847523,2000.60723 C255.653462,2000.71071 255.442526,2000.7622 255.23209,2000.7622 C255.002342,2000.7622 254.773094,2000.70081 254.566283,2000.57852 C254.170286,2000.34421 253.933976,1999.93154 253.933976,1999.47493 L253.933976,1991.88009 C253.933976,1991.42125 254.171786,1991.00784 254.570471,1990.77384 C254.968905,1990.54003 255.449339,1990.53186 255.855836,1990.75205 L262.925343,1994.58237 Z" id="icon-youtube"></path>
                </g>
            </g>
        </g>
    </g>
</svg>