<svg width="143" height="437" viewBox="0 0 143 437" xmlns="http://www.w3.org/2000/svg"><title>decor-right</title><g fill="none" fill-rule="evenodd"><path d="M143 290H97.676v111.913H-4V437h147z"/><path d="M306.03 462.434a2 2 0 1 0 2.828-2.829 2 2 0 0 0-2.829 2.829zm-6.365-6.364a2 2 0 1 0 2.829-2.829 2 2 0 0 0-2.829 2.829zm-6.363-6.364a2 2 0 1 0 2.828-2.829 2 2 0 0 0-2.828 2.829zm-6.364-6.364a2 2 0 1 0 2.828-2.829 2 2 0 0 0-2.828 2.829zm-6.364-6.364a2 2 0 1 0 2.828-2.829 2 2 0 0 0-2.828 2.829zm-6.364-6.364a2 2 0 1 0 2.828-2.829 2 2 0 0 0-2.828 2.829zm-6.364-6.364a2 2 0 1 0 2.828-2.829 2 2 0 0 0-2.828 2.829zm-6.364-6.364a2 2 0 1 0 2.828-2.829 2 2 0 0 0-2.828 2.829zm-6.364-6.364a2 2 0 1 0 2.828-2.829 2 2 0 0 0-2.828 2.829zm-6.364-6.364a2 2 0 1 0 2.828-2.829 2 2 0 0 0-2.828 2.829zm-6.364-6.364a2 2 0 1 0 2.828-2.828 2 2 0 0 0-2.828 2.828zm-6.364-6.364a2 2 0 1 0 2.828-2.828 2 2 0 0 0-2.828 2.828zm-6.364-6.364a2 2 0 1 0 2.828-2.828 2 2 0 0 0-2.828 2.828zm-6.364-6.364a2 2 0 1 0 2.828-2.828 2 2 0 0 0-2.828 2.828zm-6.364-6.364a2 2 0 1 0 2.828-2.828 2 2 0 0 0-2.828 2.828zm-6.364-6.364a2 2 0 1 0 2.828-2.828 2 2 0 0 0-2.828 2.828zm-6.364-6.364a2 2 0 1 0 2.828-2.828 2 2 0 0 0-2.828 2.828zm-6.364-6.364a2 2 0 1 0 2.829-2.828 2 2 0 0 0-2.829 2.828zm-6.364-6.364a2 2 0 1 0 2.829-2.828 2 2 0 0 0-2.829 2.828zm-6.364-6.364a2 2 0 1 0 2.829-2.828 2 2 0 0 0-2.829 2.828zm-6.364-6.364a2 2 0 1 0 2.829-2.828 2 2 0 0 0-2.829 2.828zm-6.364-6.364a2 2 0 1 0 2.829-2.828 2 2 0 0 0-2.829 2.828zm-6.364-6.364a2 2 0 1 0 2.829-2.828 2 2 0 0 0-2.829 2.828zm-6.364-6.364a2 2 0 1 0 2.829-2.828 2 2 0 0 0-2.829 2.828zm-6.364-6.364a2 2 0 1 0 2.829-2.828 2 2 0 0 0-2.829 2.828zm-6.364-6.363a2 2 0 1 0 2.829-2.829 2 2 0 0 0-2.829 2.829zm-6.364-6.364a2 2 0 1 0 2.829-2.829 2 2 0 0 0-2.829 2.829zm159.099 171.827a2 2 0 1 0 2.829-2.829 2 2 0 0 0-2.829 2.829zm-6.363-6.364a2 2 0 1 0 2.828-2.829 2 2 0 0 0-2.828 2.829zm-6.364-6.364a2 2 0 1 0 2.828-2.829 2 2 0 0 0-2.828 2.829zm-6.364-6.364a2 2 0 1 0 2.828-2.829 2 2 0 0 0-2.828 2.829zm-6.364-6.364a2 2 0 1 0 2.828-2.829 2 2 0 0 0-2.828 2.829zm-6.364-6.364a2 2 0 1 0 2.828-2.829 2 2 0 0 0-2.828 2.829zm-6.364-6.364a2 2 0 1 0 2.828-2.829 2 2 0 0 0-2.828 2.829zm-6.364-6.364a2 2 0 1 0 2.828-2.829 2 2 0 0 0-2.828 2.829zm-6.364-6.364a2 2 0 1 0 2.828-2.829 2 2 0 0 0-2.828 2.829zm-6.364-6.364a2 2 0 1 0 2.828-2.829 2 2 0 0 0-2.828 2.829zm-6.364-6.364a2 2 0 1 0 2.828-2.829 2 2 0 0 0-2.828 2.829zm-6.364-6.364a2 2 0 1 0 2.828-2.828 2 2 0 0 0-2.828 2.828zm-6.364-6.364a2 2 0 1 0 2.828-2.828 2 2 0 0 0-2.828 2.828zm-6.364-6.364a2 2 0 1 0 2.828-2.828 2 2 0 0 0-2.828 2.828zm-6.364-6.364a2 2 0 1 0 2.828-2.828 2 2 0 0 0-2.828 2.828zm-6.364-6.364a2 2 0 1 0 2.828-2.828 2 2 0 0 0-2.828 2.828zm-6.364-6.364a2 2 0 1 0 2.829-2.828 2 2 0 0 0-2.829 2.828zm-6.364-6.364a2 2 0 1 0 2.829-2.828 2 2 0 0 0-2.829 2.828zm-6.364-6.364a2 2 0 1 0 2.829-2.828 2 2 0 0 0-2.829 2.828zm-6.364-6.364a2 2 0 1 0 2.829-2.828 2 2 0 0 0-2.829 2.828zm-6.364-6.364a2 2 0 1 0 2.829-2.828 2 2 0 0 0-2.829 2.828zm-6.364-6.364a2 2 0 1 0 2.829-2.828 2 2 0 0 0-2.829 2.828zm-6.364-6.364a2 2 0 1 0 2.829-2.828 2 2 0 0 0-2.829 2.828zm-6.364-6.364a2 2 0 1 0 2.829-2.828 2 2 0 0 0-2.829 2.828zm-6.364-6.364a2 2 0 1 0 2.829-2.828 2 2 0 0 0-2.829 2.828zm-6.364-6.364a2 2 0 1 0 2.829-2.828 2 2 0 0 0-2.829 2.828zm-6.364-6.363a2 2 0 1 0 2.829-2.829 2 2 0 0 0-2.829 2.829zm159.1 171.826a2 2 0 1 0 2.828-2.828 2 2 0 0 0-2.828 2.828zm-6.364-6.363a2 2 0 1 0 2.828-2.829 2 2 0 0 0-2.828 2.829zm-6.364-6.364a2 2 0 1 0 2.828-2.829 2 2 0 0 0-2.828 2.829zm-6.364-6.364a2 2 0 1 0 2.828-2.829 2 2 0 0 0-2.828 2.829zm-6.364-6.364a2 2 0 1 0 2.828-2.829 2 2 0 0 0-2.828 2.829zm-6.364-6.364a2 2 0 1 0 2.828-2.829 2 2 0 0 0-2.828 2.829zm-6.364-6.364a2 2 0 1 0 2.828-2.829 2 2 0 0 0-2.828 2.829zm-6.364-6.364a2 2 0 1 0 2.828-2.829 2 2 0 0 0-2.828 2.829zm-6.364-6.364a2 2 0 1 0 2.828-2.829 2 2 0 0 0-2.828 2.829zm-6.364-6.364a2 2 0 1 0 2.828-2.829 2 2 0 0 0-2.828 2.829zm-6.364-6.364a2 2 0 1 0 2.828-2.829 2 2 0 0 0-2.828 2.829zm-6.364-6.364a2 2 0 1 0 2.828-2.829 2 2 0 0 0-2.828 2.829zm-6.364-6.364a2 2 0 1 0 2.828-2.828 2 2 0 0 0-2.828 2.828zm-6.364-6.364a2 2 0 1 0 2.828-2.828 2 2 0 0 0-2.828 2.828zm-6.364-6.364a2 2 0 1 0 2.828-2.828 2 2 0 0 0-2.828 2.828zm-6.364-6.364a2 2 0 1 0 2.829-2.828 2 2 0 0 0-2.829 2.828zm-6.364-6.364a2 2 0 1 0 2.829-2.828 2 2 0 0 0-2.829 2.828zm-6.364-6.364a2 2 0 1 0 2.829-2.828 2 2 0 0 0-2.829 2.828zm-6.364-6.364a2 2 0 1 0 2.829-2.828 2 2 0 0 0-2.829 2.828zm-6.364-6.364a2 2 0 1 0 2.829-2.828 2 2 0 0 0-2.829 2.828zm-6.364-6.364a2 2 0 1 0 2.829-2.828 2 2 0 0 0-2.829 2.828zm-6.364-6.364a2 2 0 1 0 2.829-2.828 2 2 0 0 0-2.829 2.828zm-6.364-6.364a2 2 0 1 0 2.829-2.828 2 2 0 0 0-2.829 2.828zm-6.364-6.364a2 2 0 1 0 2.829-2.828 2 2 0 0 0-2.829 2.828zm-6.364-6.364a2 2 0 1 0 2.829-2.828 2 2 0 0 0-2.829 2.828zm-6.364-6.364a2 2 0 1 0 2.829-2.828 2 2 0 0 0-2.829 2.828zm-6.363-6.364a2 2 0 1 0 2.828-2.828 2 2 0 0 0-2.828 2.828zm159.099 171.827a2 2 0 1 0 2.828-2.828 2 2 0 0 0-2.828 2.828zm-6.364-6.364a2 2 0 1 0 2.828-2.828 2 2 0 0 0-2.828 2.828zm-6.364-6.363a2 2 0 1 0 2.828-2.829 2 2 0 0 0-2.828 2.829zm-6.364-6.364a2 2 0 1 0 2.828-2.829 2 2 0 0 0-2.828 2.829zm-6.364-6.364a2 2 0 1 0 2.828-2.829 2 2 0 0 0-2.828 2.829zm-6.364-6.364a2 2 0 1 0 2.828-2.829 2 2 0 0 0-2.828 2.829zm-6.364-6.364a2 2 0 1 0 2.828-2.829 2 2 0 0 0-2.828 2.829zm-6.364-6.364a2 2 0 1 0 2.828-2.829 2 2 0 0 0-2.828 2.829zm-6.364-6.364a2 2 0 1 0 2.828-2.829 2 2 0 0 0-2.828 2.829zm-6.364-6.364a2 2 0 1 0 2.828-2.829 2 2 0 0 0-2.828 2.829zm-6.364-6.364a2 2 0 1 0 2.828-2.829 2 2 0 0 0-2.828 2.829zm-6.364-6.364a2 2 0 1 0 2.828-2.829 2 2 0 0 0-2.828 2.829zm-6.364-6.364a2 2 0 1 0 2.828-2.829 2 2 0 0 0-2.828 2.829zm-6.364-6.364a2 2 0 1 0 2.828-2.828 2 2 0 0 0-2.828 2.828zm-6.364-6.364a2 2 0 1 0 2.829-2.828 2 2 0 0 0-2.829 2.828zm-6.364-6.364a2 2 0 1 0 2.829-2.828 2 2 0 0 0-2.829 2.828zm-6.364-6.364a2 2 0 1 0 2.829-2.828 2 2 0 0 0-2.829 2.828zm-6.364-6.364a2 2 0 1 0 2.829-2.828 2 2 0 0 0-2.829 2.828zm-6.364-6.364a2 2 0 1 0 2.829-2.828 2 2 0 0 0-2.829 2.828zm-6.364-6.364a2 2 0 1 0 2.829-2.828 2 2 0 0 0-2.829 2.828zm-6.364-6.364a2 2 0 1 0 2.829-2.828 2 2 0 0 0-2.829 2.828zm-6.364-6.364a2 2 0 1 0 2.829-2.828 2 2 0 0 0-2.829 2.828zm-6.364-6.364a2 2 0 1 0 2.829-2.828 2 2 0 0 0-2.829 2.828zm-6.364-6.364a2 2 0 1 0 2.829-2.828 2 2 0 0 0-2.829 2.828zm-6.364-6.364a2 2 0 1 0 2.829-2.828 2 2 0 0 0-2.829 2.828zm-6.363-6.364a2 2 0 1 0 2.828-2.828 2 2 0 0 0-2.828 2.828zm-6.364-6.364a2 2 0 1 0 2.828-2.828 2 2 0 0 0-2.828 2.828zM280.574 487.89a2 2 0 1 0 2.828-2.829 2 2 0 0 0-2.828 2.828zm-6.364-6.365a2 2 0 1 0 2.828-2.828 2 2 0 0 0-2.828 2.828zm-6.364-6.364a2 2 0 1 0 2.828-2.828 2 2 0 0 0-2.828 2.828zm-6.364-6.363a2 2 0 1 0 2.828-2.829 2 2 0 0 0-2.828 2.829zm-6.364-6.364a2 2 0 1 0 2.828-2.829 2 2 0 0 0-2.828 2.829zm-6.364-6.364a2 2 0 1 0 2.828-2.829 2 2 0 0 0-2.828 2.829zm-6.364-6.364a2 2 0 1 0 2.828-2.829 2 2 0 0 0-2.828 2.829zm-6.364-6.364a2 2 0 1 0 2.828-2.829 2 2 0 0 0-2.828 2.829zm-6.364-6.364a2 2 0 1 0 2.828-2.829 2 2 0 0 0-2.828 2.829zm-6.364-6.364a2 2 0 1 0 2.828-2.829 2 2 0 0 0-2.828 2.829zm-6.364-6.364a2 2 0 1 0 2.828-2.829 2 2 0 0 0-2.828 2.829zm-6.364-6.364a2 2 0 1 0 2.828-2.829 2 2 0 0 0-2.828 2.829zm-6.364-6.364a2 2 0 1 0 2.828-2.829 2 2 0 0 0-2.828 2.829zm-6.364-6.364a2 2 0 1 0 2.829-2.829 2 2 0 0 0-2.829 2.829zm-6.364-6.364a2 2 0 1 0 2.829-2.828 2 2 0 0 0-2.829 2.828zm-6.364-6.364a2 2 0 1 0 2.829-2.828 2 2 0 0 0-2.829 2.828zm-6.364-6.364a2 2 0 1 0 2.829-2.828 2 2 0 0 0-2.829 2.828zm-6.364-6.364a2 2 0 1 0 2.829-2.828 2 2 0 0 0-2.829 2.828zm-6.364-6.364a2 2 0 1 0 2.829-2.828 2 2 0 0 0-2.829 2.828zm-6.364-6.364a2 2 0 1 0 2.829-2.828 2 2 0 0 0-2.829 2.828zm-6.364-6.364a2 2 0 1 0 2.829-2.828 2 2 0 0 0-2.829 2.828zm-6.364-6.364a2 2 0 1 0 2.829-2.828 2 2 0 0 0-2.829 2.828zm-6.364-6.364a2 2 0 1 0 2.829-2.828 2 2 0 0 0-2.829 2.828zm-6.364-6.364a2 2 0 1 0 2.829-2.828 2 2 0 0 0-2.829 2.828zm-6.363-6.364a2 2 0 1 0 2.828-2.828 2 2 0 0 0-2.828 2.828zm-6.364-6.364a2 2 0 1 0 2.828-2.828 2 2 0 0 0-2.828 2.828zm-6.364-6.364a2 2 0 1 0 2.828-2.828 2 2 0 0 0-2.828 2.828zM274.21 494.253a2 2 0 1 0 2.828-2.828 2 2 0 0 0-2.828 2.828zm-6.364-6.364a2 2 0 1 0 2.828-2.828 2 2 0 0 0-2.828 2.828zm-6.364-6.364a2 2 0 1 0 2.828-2.828 2 2 0 0 0-2.828 2.828zm-6.364-6.364a2 2 0 1 0 2.828-2.828 2 2 0 0 0-2.828 2.828zm-6.364-6.363a2 2 0 1 0 2.828-2.829 2 2 0 0 0-2.828 2.829zm-6.364-6.364a2 2 0 1 0 2.828-2.829 2 2 0 0 0-2.828 2.829zm-6.364-6.364a2 2 0 1 0 2.828-2.829 2 2 0 0 0-2.828 2.829zm-6.364-6.364a2 2 0 1 0 2.828-2.829 2 2 0 0 0-2.828 2.829zm-6.364-6.364a2 2 0 1 0 2.828-2.829 2 2 0 0 0-2.828 2.829zm-6.364-6.364a2 2 0 1 0 2.828-2.829 2 2 0 0 0-2.828 2.829zm-6.364-6.364a2 2 0 1 0 2.828-2.829 2 2 0 0 0-2.828 2.829zm-6.364-6.364a2 2 0 1 0 2.828-2.829 2 2 0 0 0-2.828 2.829zm-6.364-6.364a2 2 0 1 0 2.829-2.829 2 2 0 0 0-2.829 2.829zm-6.364-6.364a2 2 0 1 0 2.829-2.829 2 2 0 0 0-2.829 2.829zm-6.364-6.364a2 2 0 1 0 2.829-2.829 2 2 0 0 0-2.829 2.829zm-6.364-6.364a2 2 0 1 0 2.829-2.828 2 2 0 0 0-2.829 2.828zm-6.364-6.364a2 2 0 1 0 2.829-2.828 2 2 0 0 0-2.829 2.828zm-6.364-6.364a2 2 0 1 0 2.829-2.828 2 2 0 0 0-2.829 2.828zm-6.364-6.364a2 2 0 1 0 2.829-2.828 2 2 0 0 0-2.829 2.828zm-6.364-6.364a2 2 0 1 0 2.829-2.828 2 2 0 0 0-2.829 2.828zm-6.364-6.364a2 2 0 1 0 2.829-2.828 2 2 0 0 0-2.829 2.828zm-6.364-6.364a2 2 0 1 0 2.829-2.828 2 2 0 0 0-2.829 2.828zm-6.364-6.364a2 2 0 1 0 2.829-2.828 2 2 0 0 0-2.829 2.828zm-6.363-6.364a2 2 0 1 0 2.828-2.828 2 2 0 0 0-2.828 2.828zm-6.364-6.364a2 2 0 1 0 2.828-2.828 2 2 0 0 0-2.828 2.828zm-6.364-6.364a2 2 0 1 0 2.828-2.828 2 2 0 0 0-2.828 2.828zm-6.364-6.364a2 2 0 1 0 2.828-2.828 2 2 0 0 0-2.828 2.828zm159.099 171.827a2 2 0 1 0 2.828-2.828 2 2 0 0 0-2.828 2.828zm-6.364-6.364a2 2 0 1 0 2.828-2.828 2 2 0 0 0-2.828 2.828zm-6.364-6.364a2 2 0 1 0 2.828-2.828 2 2 0 0 0-2.828 2.828zm-6.364-6.364a2 2 0 1 0 2.828-2.828 2 2 0 0 0-2.828 2.828zm-6.364-6.364a2 2 0 1 0 2.828-2.828 2 2 0 0 0-2.828 2.828zm-6.364-6.363a2 2 0 1 0 2.828-2.829 2 2 0 0 0-2.828 2.829zm-6.364-6.364a2 2 0 1 0 2.828-2.829 2 2 0 0 0-2.828 2.829zm-6.364-6.364a2 2 0 1 0 2.828-2.829 2 2 0 0 0-2.828 2.829zm-6.364-6.364a2 2 0 1 0 2.828-2.829 2 2 0 0 0-2.828 2.829zm-6.364-6.364a2 2 0 1 0 2.828-2.829 2 2 0 0 0-2.828 2.829zm-6.364-6.364a2 2 0 1 0 2.828-2.829 2 2 0 0 0-2.828 2.829zm-6.364-6.364a2 2 0 1 0 2.829-2.829 2 2 0 0 0-2.829 2.829zm-6.364-6.364a2 2 0 1 0 2.829-2.829 2 2 0 0 0-2.829 2.829zm-6.364-6.364a2 2 0 1 0 2.829-2.829 2 2 0 0 0-2.829 2.829zm-6.364-6.364a2 2 0 1 0 2.829-2.829 2 2 0 0 0-2.829 2.829zm-6.364-6.364a2 2 0 1 0 2.829-2.829 2 2 0 0 0-2.829 2.829zm-6.364-6.364a2 2 0 1 0 2.829-2.828 2 2 0 0 0-2.829 2.828zm-6.364-6.364a2 2 0 1 0 2.829-2.828 2 2 0 0 0-2.829 2.828zm-6.364-6.364a2 2 0 1 0 2.829-2.828 2 2 0 0 0-2.829 2.828zm-6.364-6.364a2 2 0 1 0 2.829-2.828 2 2 0 0 0-2.829 2.828zm-6.364-6.364a2 2 0 1 0 2.829-2.828 2 2 0 0 0-2.829 2.828zm-6.364-6.364a2 2 0 1 0 2.829-2.828 2 2 0 0 0-2.829 2.828zm-6.363-6.364a2 2 0 1 0 2.828-2.828 2 2 0 0 0-2.828 2.828zm-6.364-6.364a2 2 0 1 0 2.828-2.828 2 2 0 0 0-2.828 2.828zm-6.364-6.364a2 2 0 1 0 2.828-2.828 2 2 0 0 0-2.828 2.828zm-6.364-6.364a2 2 0 1 0 2.828-2.828 2 2 0 0 0-2.828 2.828zm-6.364-6.364a2 2 0 1 0 2.828-2.828 2 2 0 0 0-2.828 2.828zm159.099 171.827a2 2 0 1 0 2.828-2.828 2 2 0 0 0-2.828 2.828zm-6.364-6.364a2 2 0 1 0 2.828-2.828 2 2 0 0 0-2.828 2.828zm-6.364-6.364a2 2 0 1 0 2.828-2.828 2 2 0 0 0-2.828 2.828zm-6.364-6.364a2 2 0 1 0 2.828-2.828 2 2 0 0 0-2.828 2.828zm-6.364-6.364a2 2 0 1 0 2.828-2.828 2 2 0 0 0-2.828 2.828zm-6.364-6.364a2 2 0 1 0 2.828-2.828 2 2 0 0 0-2.828 2.828zm-6.364-6.363a2 2 0 1 0 2.828-2.829 2 2 0 0 0-2.828 2.829zm-6.364-6.364a2 2 0 1 0 2.828-2.829 2 2 0 0 0-2.828 2.829zm-6.364-6.364a2 2 0 1 0 2.828-2.829 2 2 0 0 0-2.828 2.829zm-6.364-6.364a2 2 0 1 0 2.828-2.829 2 2 0 0 0-2.828 2.829zm-6.364-6.364a2 2 0 1 0 2.829-2.829 2 2 0 0 0-2.829 2.829zm-6.364-6.364a2 2 0 1 0 2.829-2.829 2 2 0 0 0-2.829 2.829zm-6.364-6.364a2 2 0 1 0 2.829-2.829 2 2 0 0 0-2.829 2.829zm-6.364-6.364a2 2 0 1 0 2.829-2.829 2 2 0 0 0-2.829 2.829zm-6.364-6.364a2 2 0 1 0 2.829-2.829 2 2 0 0 0-2.829 2.829zm-6.364-6.364a2 2 0 1 0 2.829-2.829 2 2 0 0 0-2.829 2.829zm-6.364-6.364a2 2 0 1 0 2.829-2.829 2 2 0 0 0-2.829 2.829zm-6.364-6.364a2 2 0 1 0 2.829-2.828 2 2 0 0 0-2.829 2.828zm-6.364-6.364a2 2 0 1 0 2.829-2.828 2 2 0 0 0-2.829 2.828zm-6.364-6.364a2 2 0 1 0 2.829-2.828 2 2 0 0 0-2.829 2.828zm-6.364-6.364a2 2 0 1 0 2.829-2.828 2 2 0 0 0-2.829 2.828zm-6.363-6.364a2 2 0 1 0 2.828-2.828 2 2 0 0 0-2.828 2.828zm-6.364-6.364a2 2 0 1 0 2.828-2.828 2 2 0 0 0-2.828 2.828zm-6.364-6.364a2 2 0 1 0 2.828-2.828 2 2 0 0 0-2.828 2.828zm-6.364-6.364a2 2 0 1 0 2.828-2.828 2 2 0 0 0-2.828 2.828zm-6.364-6.364a2 2 0 1 0 2.828-2.828 2 2 0 0 0-2.828 2.828zm-6.364-6.364a2 2 0 1 0 2.828-2.828 2 2 0 0 0-2.828 2.828zm159.099 171.827a2 2 0 1 0 2.828-2.828 2 2 0 0 0-2.828 2.828zm-6.364-6.364a2 2 0 1 0 2.828-2.828 2 2 0 0 0-2.828 2.828zm-6.364-6.364a2 2 0 1 0 2.828-2.828 2 2 0 0 0-2.828 2.828zm-6.364-6.364a2 2 0 1 0 2.828-2.828 2 2 0 0 0-2.828 2.828zm-6.364-6.364a2 2 0 1 0 2.828-2.828 2 2 0 0 0-2.828 2.828zm-6.364-6.364a2 2 0 1 0 2.828-2.828 2 2 0 0 0-2.828 2.828zm-6.364-6.364a2 2 0 1 0 2.828-2.828 2 2 0 0 0-2.828 2.828zm-6.364-6.363a2 2 0 1 0 2.828-2.829 2 2 0 0 0-2.828 2.829zm-6.364-6.364a2 2 0 1 0 2.828-2.829 2 2 0 0 0-2.828 2.829zm-6.364-6.364a2 2 0 1 0 2.829-2.829 2 2 0 0 0-2.829 2.829zm-6.364-6.364a2 2 0 1 0 2.829-2.829 2 2 0 0 0-2.829 2.829zm-6.364-6.364a2 2 0 1 0 2.829-2.829 2 2 0 0 0-2.829 2.829zm-6.364-6.364a2 2 0 1 0 2.829-2.829 2 2 0 0 0-2.829 2.829zm-6.364-6.364a2 2 0 1 0 2.829-2.829 2 2 0 0 0-2.829 2.829zm-6.364-6.364a2 2 0 1 0 2.829-2.829 2 2 0 0 0-2.829 2.829zm-6.364-6.364a2 2 0 1 0 2.829-2.829 2 2 0 0 0-2.829 2.829zm-6.364-6.364a2 2 0 1 0 2.829-2.829 2 2 0 0 0-2.829 2.829zm-6.364-6.364a2 2 0 1 0 2.829-2.829 2 2 0 0 0-2.829 2.829zm-6.364-6.364a2 2 0 1 0 2.829-2.828 2 2 0 0 0-2.829 2.828zm-6.364-6.364a2 2 0 1 0 2.829-2.828 2 2 0 0 0-2.829 2.828zm-6.363-6.364a2 2 0 1 0 2.828-2.828 2 2 0 0 0-2.828 2.828zm-6.364-6.364a2 2 0 1 0 2.828-2.828 2 2 0 0 0-2.828 2.828zm-6.364-6.364a2 2 0 1 0 2.828-2.828 2 2 0 0 0-2.828 2.828zm-6.364-6.364a2 2 0 1 0 2.828-2.828 2 2 0 0 0-2.828 2.828zm-6.364-6.364a2 2 0 1 0 2.828-2.828 2 2 0 0 0-2.828 2.828zm-6.364-6.364a2 2 0 1 0 2.828-2.828 2 2 0 0 0-2.828 2.828zm-6.364-6.364a2 2 0 1 0 2.828-2.828 2 2 0 0 0-2.828 2.828zM248.754 519.71a2 2 0 1 0 2.828-2.83 2 2 0 0 0-2.828 2.83zm-6.364-6.365a2 2 0 1 0 2.828-2.828 2 2 0 0 0-2.828 2.828zm-6.364-6.364a2 2 0 1 0 2.828-2.828 2 2 0 0 0-2.828 2.828zm-6.364-6.364a2 2 0 1 0 2.828-2.828 2 2 0 0 0-2.828 2.828zm-6.364-6.364a2 2 0 1 0 2.828-2.828 2 2 0 0 0-2.828 2.828zm-6.364-6.364a2 2 0 1 0 2.828-2.828 2 2 0 0 0-2.828 2.828zm-6.364-6.364a2 2 0 1 0 2.828-2.828 2 2 0 0 0-2.828 2.828zm-6.364-6.364a2 2 0 1 0 2.828-2.828 2 2 0 0 0-2.828 2.828zm-6.364-6.363a2 2 0 1 0 2.829-2.829 2 2 0 0 0-2.829 2.829zm-6.364-6.364a2 2 0 1 0 2.829-2.829 2 2 0 0 0-2.829 2.829zm-6.364-6.364a2 2 0 1 0 2.829-2.829 2 2 0 0 0-2.829 2.829zm-6.364-6.364a2 2 0 1 0 2.829-2.829 2 2 0 0 0-2.829 2.829zm-6.364-6.364a2 2 0 1 0 2.829-2.829 2 2 0 0 0-2.829 2.829zm-6.364-6.364a2 2 0 1 0 2.829-2.829 2 2 0 0 0-2.829 2.829zm-6.364-6.364a2 2 0 1 0 2.829-2.829 2 2 0 0 0-2.829 2.829zm-6.364-6.364a2 2 0 1 0 2.829-2.829 2 2 0 0 0-2.829 2.829zm-6.364-6.364a2 2 0 1 0 2.829-2.829 2 2 0 0 0-2.829 2.829zm-6.364-6.364a2 2 0 1 0 2.829-2.829 2 2 0 0 0-2.829 2.829zm-6.364-6.364a2 2 0 1 0 2.829-2.829 2 2 0 0 0-2.829 2.829zm-6.363-6.364a2 2 0 1 0 2.828-2.828 2 2 0 0 0-2.828 2.828zm-6.364-6.364a2 2 0 1 0 2.828-2.828 2 2 0 0 0-2.828 2.828zm-6.364-6.364a2 2 0 1 0 2.828-2.828 2 2 0 0 0-2.828 2.828zm-6.364-6.364a2 2 0 1 0 2.828-2.828 2 2 0 0 0-2.828 2.828zm-6.364-6.364a2 2 0 1 0 2.828-2.828 2 2 0 0 0-2.828 2.828zm-6.364-6.364a2 2 0 1 0 2.828-2.828 2 2 0 0 0-2.828 2.828zm-6.364-6.364a2 2 0 1 0 2.828-2.828 2 2 0 0 0-2.828 2.828zm-6.364-6.364a2 2 0 1 0 2.828-2.828 2 2 0 0 0-2.828 2.828zM242.39 526.073a2 2 0 1 0 2.828-2.828 2 2 0 0 0-2.828 2.828zm-6.364-6.364a2 2 0 1 0 2.828-2.828 2 2 0 0 0-2.828 2.828zm-6.364-6.364a2 2 0 1 0 2.828-2.828 2 2 0 0 0-2.828 2.828zm-6.364-6.364a2 2 0 1 0 2.828-2.828 2 2 0 0 0-2.828 2.828zm-6.364-6.364a2 2 0 1 0 2.828-2.828 2 2 0 0 0-2.828 2.828zm-6.364-6.364a2 2 0 1 0 2.828-2.828 2 2 0 0 0-2.828 2.828zm-6.364-6.364a2 2 0 1 0 2.828-2.828 2 2 0 0 0-2.828 2.828zm-6.364-6.364a2 2 0 1 0 2.829-2.828 2 2 0 0 0-2.829 2.828zm-6.364-6.364a2 2 0 1 0 2.829-2.828 2 2 0 0 0-2.829 2.828zm-6.364-6.363a2 2 0 1 0 2.829-2.829 2 2 0 0 0-2.829 2.829zm-6.364-6.364a2 2 0 1 0 2.829-2.829 2 2 0 0 0-2.829 2.829zm-6.364-6.364a2 2 0 1 0 2.829-2.829 2 2 0 0 0-2.829 2.829zm-6.364-6.364a2 2 0 1 0 2.829-2.829 2 2 0 0 0-2.829 2.829zm-6.364-6.364a2 2 0 1 0 2.829-2.829 2 2 0 0 0-2.829 2.829zm-6.364-6.364a2 2 0 1 0 2.829-2.829 2 2 0 0 0-2.829 2.829zm-6.364-6.364a2 2 0 1 0 2.829-2.829 2 2 0 0 0-2.829 2.829zm-6.364-6.364a2 2 0 1 0 2.829-2.829 2 2 0 0 0-2.829 2.829zm-6.364-6.364a2 2 0 1 0 2.829-2.829 2 2 0 0 0-2.829 2.829zm-6.363-6.364a2 2 0 1 0 2.828-2.829 2 2 0 0 0-2.828 2.829zm-6.364-6.364a2 2 0 1 0 2.828-2.829 2 2 0 0 0-2.828 2.829zm-6.364-6.364a2 2 0 1 0 2.828-2.828 2 2 0 0 0-2.828 2.828zm-6.364-6.364a2 2 0 1 0 2.828-2.828 2 2 0 0 0-2.828 2.828zm-6.364-6.364a2 2 0 1 0 2.828-2.828 2 2 0 0 0-2.828 2.828zm-6.364-6.364a2 2 0 1 0 2.828-2.828 2 2 0 0 0-2.828 2.828zm-6.364-6.364a2 2 0 1 0 2.828-2.828 2 2 0 0 0-2.828 2.828zm-6.364-6.364a2 2 0 1 0 2.828-2.828 2 2 0 0 0-2.828 2.828zm-6.364-6.364a2 2 0 1 0 2.828-2.828 2 2 0 0 0-2.828 2.828zm159.099 171.827a2 2 0 1 0 2.828-2.828 2 2 0 0 0-2.828 2.828zm-6.364-6.364a2 2 0 1 0 2.828-2.828 2 2 0 0 0-2.828 2.828zm-6.364-6.364a2 2 0 1 0 2.828-2.828 2 2 0 0 0-2.828 2.828zm-6.364-6.364a2 2 0 1 0 2.828-2.828 2 2 0 0 0-2.828 2.828zm-6.364-6.364a2 2 0 1 0 2.828-2.828 2 2 0 0 0-2.828 2.828zm-6.364-6.364a2 2 0 1 0 2.828-2.828 2 2 0 0 0-2.828 2.828zm-6.364-6.364a2 2 0 1 0 2.829-2.828 2 2 0 0 0-2.829 2.828zm-6.364-6.364a2 2 0 1 0 2.829-2.828 2 2 0 0 0-2.829 2.828zm-6.364-6.364a2 2 0 1 0 2.829-2.828 2 2 0 0 0-2.829 2.828zm-6.364-6.364a2 2 0 1 0 2.829-2.828 2 2 0 0 0-2.829 2.828zm-6.364-6.363a2 2 0 1 0 2.829-2.829 2 2 0 0 0-2.829 2.829zm-6.364-6.364a2 2 0 1 0 2.829-2.829 2 2 0 0 0-2.829 2.829zm-6.364-6.364a2 2 0 1 0 2.829-2.829 2 2 0 0 0-2.829 2.829zm-6.364-6.364a2 2 0 1 0 2.829-2.829 2 2 0 0 0-2.829 2.829zm-6.364-6.364a2 2 0 1 0 2.829-2.829 2 2 0 0 0-2.829 2.829zm-6.364-6.364a2 2 0 1 0 2.829-2.829 2 2 0 0 0-2.829 2.829zm-6.364-6.364a2 2 0 1 0 2.829-2.829 2 2 0 0 0-2.829 2.829zm-6.363-6.364a2 2 0 1 0 2.828-2.829 2 2 0 0 0-2.828 2.829zm-6.364-6.364a2 2 0 1 0 2.828-2.829 2 2 0 0 0-2.828 2.829zm-6.364-6.364a2 2 0 1 0 2.828-2.829 2 2 0 0 0-2.828 2.829zm-6.364-6.364a2 2 0 1 0 2.828-2.829 2 2 0 0 0-2.828 2.829zm-6.364-6.364a2 2 0 1 0 2.828-2.828 2 2 0 0 0-2.828 2.828zm-6.364-6.364a2 2 0 1 0 2.828-2.828 2 2 0 0 0-2.828 2.828zm-6.364-6.364a2 2 0 1 0 2.828-2.828 2 2 0 0 0-2.828 2.828zm-6.364-6.364a2 2 0 1 0 2.828-2.828 2 2 0 0 0-2.828 2.828zm-6.364-6.364a2 2 0 1 0 2.828-2.828 2 2 0 0 0-2.828 2.828zm-6.364-6.364a2 2 0 1 0 2.828-2.828 2 2 0 0 0-2.828 2.828zm159.099 171.827a2 2 0 1 0 2.828-2.828 2 2 0 0 0-2.828 2.828zm-6.364-6.364a2 2 0 1 0 2.828-2.828 2 2 0 0 0-2.828 2.828zm-6.364-6.364a2 2 0 1 0 2.828-2.828 2 2 0 0 0-2.828 2.828zm-6.364-6.364a2 2 0 1 0 2.828-2.828 2 2 0 0 0-2.828 2.828zm-6.364-6.364a2 2 0 1 0 2.828-2.828 2 2 0 0 0-2.828 2.828zm-6.364-6.364a2 2 0 1 0 2.829-2.828 2 2 0 0 0-2.829 2.828zm-6.364-6.364a2 2 0 1 0 2.829-2.828 2 2 0 0 0-2.829 2.828zm-6.364-6.364a2 2 0 1 0 2.829-2.828 2 2 0 0 0-2.829 2.828zm-6.364-6.364a2 2 0 1 0 2.829-2.828 2 2 0 0 0-2.829 2.828zm-6.364-6.364a2 2 0 1 0 2.829-2.828 2 2 0 0 0-2.829 2.828zm-6.364-6.364a2 2 0 1 0 2.829-2.828 2 2 0 0 0-2.829 2.828zm-6.364-6.363a2 2 0 1 0 2.829-2.829 2 2 0 0 0-2.829 2.829zm-6.364-6.364a2 2 0 1 0 2.829-2.829 2 2 0 0 0-2.829 2.829zm-6.364-6.364a2 2 0 1 0 2.829-2.829 2 2 0 0 0-2.829 2.829zm-6.364-6.364a2 2 0 1 0 2.829-2.829 2 2 0 0 0-2.829 2.829zm-6.364-6.364a2 2 0 1 0 2.829-2.829 2 2 0 0 0-2.829 2.829zm-6.363-6.364a2 2 0 1 0 2.828-2.829 2 2 0 0 0-2.828 2.829zm-6.364-6.364a2 2 0 1 0 2.828-2.829 2 2 0 0 0-2.828 2.829zm-6.364-6.364a2 2 0 1 0 2.828-2.829 2 2 0 0 0-2.828 2.829zm-6.364-6.364a2 2 0 1 0 2.828-2.829 2 2 0 0 0-2.828 2.829zm-6.364-6.364a2 2 0 1 0 2.828-2.829 2 2 0 0 0-2.828 2.829zm-6.364-6.364a2 2 0 1 0 2.828-2.829 2 2 0 0 0-2.828 2.829zm-6.364-6.364a2 2 0 1 0 2.828-2.828 2 2 0 0 0-2.828 2.828zm-6.364-6.364a2 2 0 1 0 2.828-2.828 2 2 0 0 0-2.828 2.828zm-6.364-6.364a2 2 0 1 0 2.828-2.828 2 2 0 0 0-2.828 2.828zm-6.364-6.364a2 2 0 1 0 2.828-2.828 2 2 0 0 0-2.828 2.828zm-6.364-6.364a2 2 0 1 0 2.828-2.828 2 2 0 0 0-2.828 2.828zm159.099 171.827a2 2 0 1 0 2.828-2.828 2 2 0 0 0-2.828 2.828zm-6.364-6.364a2 2 0 1 0 2.828-2.828 2 2 0 0 0-2.828 2.828zm-6.364-6.364a2 2 0 1 0 2.828-2.828 2 2 0 0 0-2.828 2.828zm-6.364-6.364a2 2 0 1 0 2.828-2.828 2 2 0 0 0-2.828 2.828zm-6.364-6.364a2 2 0 1 0 2.829-2.828 2 2 0 0 0-2.829 2.828zm-6.364-6.364a2 2 0 1 0 2.829-2.828 2 2 0 0 0-2.829 2.828zm-6.364-6.364a2 2 0 1 0 2.829-2.828 2 2 0 0 0-2.829 2.828zm-6.364-6.364a2 2 0 1 0 2.829-2.828 2 2 0 0 0-2.829 2.828zm-6.364-6.364a2 2 0 1 0 2.829-2.828 2 2 0 0 0-2.829 2.828zm-6.364-6.364a2 2 0 1 0 2.829-2.828 2 2 0 0 0-2.829 2.828zm-6.364-6.364a2 2 0 1 0 2.829-2.828 2 2 0 0 0-2.829 2.828zm-6.364-6.364a2 2 0 1 0 2.829-2.828 2 2 0 0 0-2.829 2.828zm-6.364-6.363a2 2 0 1 0 2.829-2.829 2 2 0 0 0-2.829 2.829zm-6.364-6.364a2 2 0 1 0 2.829-2.829 2 2 0 0 0-2.829 2.829zm-6.364-6.364a2 2 0 1 0 2.829-2.829 2 2 0 0 0-2.829 2.829zm-6.363-6.364a2 2 0 1 0 2.828-2.829 2 2 0 0 0-2.828 2.829zm-6.364-6.364a2 2 0 1 0 2.828-2.829 2 2 0 0 0-2.828 2.829zm-6.364-6.364a2 2 0 1 0 2.828-2.829 2 2 0 0 0-2.828 2.829zm-6.364-6.364a2 2 0 1 0 2.828-2.829 2 2 0 0 0-2.828 2.829zm-6.364-6.364a2 2 0 1 0 2.828-2.829 2 2 0 0 0-2.828 2.829zm-6.364-6.364a2 2 0 1 0 2.828-2.829 2 2 0 0 0-2.828 2.829zm-6.364-6.364a2 2 0 1 0 2.828-2.829 2 2 0 0 0-2.828 2.829zm-6.364-6.364a2 2 0 1 0 2.828-2.829 2 2 0 0 0-2.828 2.829zm-6.364-6.364a2 2 0 1 0 2.828-2.828 2 2 0 0 0-2.828 2.828zm-6.364-6.364a2 2 0 1 0 2.828-2.828 2 2 0 0 0-2.828 2.828zm-6.364-6.364a2 2 0 1 0 2.828-2.828 2 2 0 0 0-2.828 2.828zm-6.364-6.364a2 2 0 1 0 2.828-2.828 2 2 0 0 0-2.828 2.828zm159.099 171.827a2 2 0 1 0 2.828-2.828 2 2 0 0 0-2.828 2.828zm-6.364-6.364a2 2 0 1 0 2.828-2.828 2 2 0 0 0-2.828 2.828zm-6.364-6.364a2 2 0 1 0 2.828-2.828 2 2 0 0 0-2.828 2.828zm-6.364-6.364a2 2 0 1 0 2.829-2.828 2 2 0 0 0-2.829 2.828zm-6.364-6.364a2 2 0 1 0 2.829-2.828 2 2 0 0 0-2.829 2.828zm-6.364-6.364a2 2 0 1 0 2.829-2.828 2 2 0 0 0-2.829 2.828zm-6.364-6.364a2 2 0 1 0 2.829-2.828 2 2 0 0 0-2.829 2.828zm-6.364-6.364a2 2 0 1 0 2.829-2.828 2 2 0 0 0-2.829 2.828zm-6.364-6.364a2 2 0 1 0 2.829-2.828 2 2 0 0 0-2.829 2.828zm-6.364-6.364a2 2 0 1 0 2.829-2.828 2 2 0 0 0-2.829 2.828zm-6.364-6.364a2 2 0 1 0 2.829-2.828 2 2 0 0 0-2.829 2.828zm-6.364-6.364a2 2 0 1 0 2.829-2.828 2 2 0 0 0-2.829 2.828zm-6.364-6.364a2 2 0 1 0 2.829-2.828 2 2 0 0 0-2.829 2.828zm-6.364-6.363a2 2 0 1 0 2.829-2.829 2 2 0 0 0-2.829 2.829zm-6.363-6.364a2 2 0 1 0 2.828-2.829 2 2 0 0 0-2.828 2.829zm-6.364-6.364a2 2 0 1 0 2.828-2.829 2 2 0 0 0-2.828 2.829zm-6.364-6.364a2 2 0 1 0 2.828-2.829 2 2 0 0 0-2.828 2.829zm-6.364-6.364a2 2 0 1 0 2.828-2.829 2 2 0 0 0-2.828 2.829zm-6.364-6.364a2 2 0 1 0 2.828-2.829 2 2 0 0 0-2.828 2.829zm-6.364-6.364a2 2 0 1 0 2.828-2.829 2 2 0 0 0-2.828 2.829zm-6.364-6.364a2 2 0 1 0 2.828-2.829 2 2 0 0 0-2.828 2.829zm-6.364-6.364a2 2 0 1 0 2.828-2.829 2 2 0 0 0-2.828 2.829zm-6.364-6.364a2 2 0 1 0 2.828-2.829 2 2 0 0 0-2.828 2.829zm-6.364-6.364a2 2 0 1 0 2.828-2.829 2 2 0 0 0-2.828 2.829zm-6.364-6.364a2 2 0 1 0 2.828-2.828 2 2 0 0 0-2.828 2.828zm-6.364-6.364a2 2 0 1 0 2.828-2.828 2 2 0 0 0-2.828 2.828zm-6.364-6.364a2 2 0 1 0 2.828-2.828 2 2 0 0 0-2.828 2.828zM210.57 557.893a2 2 0 1 0 2.828-2.828 2 2 0 0 0-2.828 2.828zm-6.364-6.364a2 2 0 1 0 2.828-2.828 2 2 0 0 0-2.828 2.828zm-6.364-6.364a2 2 0 1 0 2.829-2.828 2 2 0 0 0-2.829 2.828zm-6.364-6.364a2 2 0 1 0 2.829-2.828 2 2 0 0 0-2.829 2.828zm-6.364-6.364a2 2 0 1 0 2.829-2.828 2 2 0 0 0-2.829 2.828zm-6.364-6.364a2 2 0 1 0 2.829-2.828 2 2 0 0 0-2.829 2.828zm-6.364-6.364a2 2 0 1 0 2.829-2.828 2 2 0 0 0-2.829 2.828zm-6.364-6.364a2 2 0 1 0 2.829-2.828 2 2 0 0 0-2.829 2.828zm-6.364-6.364a2 2 0 1 0 2.829-2.828 2 2 0 0 0-2.829 2.828zm-6.364-6.364a2 2 0 1 0 2.829-2.828 2 2 0 0 0-2.829 2.828zm-6.364-6.364a2 2 0 1 0 2.829-2.828 2 2 0 0 0-2.829 2.828zm-6.364-6.364a2 2 0 1 0 2.829-2.828 2 2 0 0 0-2.829 2.828zm-6.364-6.364a2 2 0 1 0 2.829-2.828 2 2 0 0 0-2.829 2.828zm-6.363-6.364a2 2 0 1 0 2.828-2.828 2 2 0 0 0-2.828 2.828zm-6.364-6.363a2 2 0 1 0 2.828-2.829 2 2 0 0 0-2.828 2.829zm-6.364-6.364a2 2 0 1 0 2.828-2.829 2 2 0 0 0-2.828 2.829zm-6.364-6.364a2 2 0 1 0 2.828-2.829 2 2 0 0 0-2.828 2.829zm-6.364-6.364a2 2 0 1 0 2.828-2.829 2 2 0 0 0-2.828 2.829zm-6.364-6.364a2 2 0 1 0 2.828-2.829 2 2 0 0 0-2.828 2.829zm-6.364-6.364a2 2 0 1 0 2.828-2.829 2 2 0 0 0-2.828 2.829zm-6.364-6.364a2 2 0 1 0 2.828-2.829 2 2 0 0 0-2.828 2.829zm-6.364-6.364a2 2 0 1 0 2.828-2.829 2 2 0 0 0-2.828 2.829zm-6.364-6.364a2 2 0 1 0 2.828-2.829 2 2 0 0 0-2.828 2.829zm-6.364-6.364a2 2 0 1 0 2.828-2.829 2 2 0 0 0-2.828 2.829zm-6.364-6.364a2 2 0 1 0 2.828-2.829 2 2 0 0 0-2.828 2.829zm-6.364-6.364a2 2 0 1 0 2.828-2.828 2 2 0 0 0-2.828 2.828zm-6.364-6.364a2 2 0 1 0 2.828-2.828 2 2 0 0 0-2.828 2.828zm159.099 171.827a2 2 0 1 0 2.828-2.829 2 2 0 0 0-2.828 2.829zm-6.364-6.364a2 2 0 1 0 2.829-2.828 2 2 0 0 0-2.829 2.828zm-6.364-6.364a2 2 0 1 0 2.829-2.828 2 2 0 0 0-2.829 2.828zm-6.364-6.364a2 2 0 1 0 2.829-2.828 2 2 0 0 0-2.829 2.828zm-6.364-6.364a2 2 0 1 0 2.829-2.828 2 2 0 0 0-2.829 2.828zm-6.364-6.364a2 2 0 1 0 2.829-2.828 2 2 0 0 0-2.829 2.828zm-6.364-6.364a2 2 0 1 0 2.829-2.828 2 2 0 0 0-2.829 2.828zm-6.364-6.364a2 2 0 1 0 2.829-2.828 2 2 0 0 0-2.829 2.828zm-6.364-6.364a2 2 0 1 0 2.829-2.828 2 2 0 0 0-2.829 2.828zm-6.364-6.364a2 2 0 1 0 2.829-2.828 2 2 0 0 0-2.829 2.828zm-6.364-6.364a2 2 0 1 0 2.829-2.828 2 2 0 0 0-2.829 2.828zm-6.364-6.364a2 2 0 1 0 2.829-2.828 2 2 0 0 0-2.829 2.828zm-6.363-6.364a2 2 0 1 0 2.828-2.828 2 2 0 0 0-2.828 2.828zm-6.364-6.364a2 2 0 1 0 2.828-2.828 2 2 0 0 0-2.828 2.828zm-6.364-6.364a2 2 0 1 0 2.828-2.828 2 2 0 0 0-2.828 2.828zm-6.364-6.363a2 2 0 1 0 2.828-2.829 2 2 0 0 0-2.828 2.829zm-6.364-6.364a2 2 0 1 0 2.828-2.829 2 2 0 0 0-2.828 2.829zm-6.364-6.364a2 2 0 1 0 2.828-2.829 2 2 0 0 0-2.828 2.829zm-6.364-6.364a2 2 0 1 0 2.828-2.829 2 2 0 0 0-2.828 2.829zm-6.364-6.364a2 2 0 1 0 2.828-2.829 2 2 0 0 0-2.828 2.829zm-6.364-6.364a2 2 0 1 0 2.828-2.829 2 2 0 0 0-2.828 2.829zm-6.364-6.364a2 2 0 1 0 2.828-2.829 2 2 0 0 0-2.828 2.829zm-6.364-6.364a2 2 0 1 0 2.828-2.829 2 2 0 0 0-2.828 2.829zm-6.364-6.364a2 2 0 1 0 2.828-2.829 2 2 0 0 0-2.828 2.829zm-6.364-6.364a2 2 0 1 0 2.828-2.829 2 2 0 0 0-2.828 2.829zm-6.364-6.364a2 2 0 1 0 2.828-2.829 2 2 0 0 0-2.828 2.829zm-6.364-6.364a2 2 0 1 0 2.829-2.828 2 2 0 0 0-2.829 2.828zM197.842 570.62a2 2 0 1 0 2.829-2.828 2 2 0 0 0-2.829 2.829zm-6.364-6.363a2 2 0 1 0 2.829-2.829 2 2 0 0 0-2.829 2.829zm-6.364-6.364a2 2 0 1 0 2.829-2.828 2 2 0 0 0-2.829 2.828zm-6.364-6.364a2 2 0 1 0 2.829-2.828 2 2 0 0 0-2.829 2.828zm-6.364-6.364a2 2 0 1 0 2.829-2.828 2 2 0 0 0-2.829 2.828zm-6.364-6.364a2 2 0 1 0 2.829-2.828 2 2 0 0 0-2.829 2.828zm-6.364-6.364a2 2 0 1 0 2.829-2.828 2 2 0 0 0-2.829 2.828zm-6.364-6.364a2 2 0 1 0 2.829-2.828 2 2 0 0 0-2.829 2.828zm-6.364-6.364a2 2 0 1 0 2.829-2.828 2 2 0 0 0-2.829 2.828zm-6.364-6.364a2 2 0 1 0 2.829-2.828 2 2 0 0 0-2.829 2.828zm-6.364-6.364a2 2 0 1 0 2.829-2.828 2 2 0 0 0-2.829 2.828zm-6.363-6.364a2 2 0 1 0 2.828-2.828 2 2 0 0 0-2.828 2.828zm-6.364-6.364a2 2 0 1 0 2.828-2.828 2 2 0 0 0-2.828 2.828zm-6.364-6.364a2 2 0 1 0 2.828-2.828 2 2 0 0 0-2.828 2.828zm-6.364-6.364a2 2 0 1 0 2.828-2.828 2 2 0 0 0-2.828 2.828zm-6.364-6.364a2 2 0 1 0 2.828-2.828 2 2 0 0 0-2.828 2.828zm-6.364-6.363a2 2 0 1 0 2.828-2.829 2 2 0 0 0-2.828 2.829zm-6.364-6.364a2 2 0 1 0 2.828-2.829 2 2 0 0 0-2.828 2.829zm-6.364-6.364a2 2 0 1 0 2.828-2.829 2 2 0 0 0-2.828 2.829zm-6.364-6.364a2 2 0 1 0 2.828-2.829 2 2 0 0 0-2.828 2.829zm-6.364-6.364a2 2 0 1 0 2.828-2.829 2 2 0 0 0-2.828 2.829zm-6.364-6.364a2 2 0 1 0 2.828-2.829 2 2 0 0 0-2.828 2.829zm-6.364-6.364a2 2 0 1 0 2.828-2.829 2 2 0 0 0-2.828 2.829zm-6.364-6.364a2 2 0 1 0 2.828-2.829 2 2 0 0 0-2.828 2.829zm-6.364-6.364a2 2 0 1 0 2.828-2.829 2 2 0 0 0-2.828 2.829zm-6.364-6.364a2 2 0 1 0 2.829-2.829 2 2 0 0 0-2.829 2.829zm-6.364-6.364a2 2 0 1 0 2.829-2.829 2 2 0 0 0-2.829 2.829zm159.099 171.827a2 2 0 1 0 2.829-2.829 2 2 0 0 0-2.829 2.829zm-6.364-6.364a2 2 0 1 0 2.829-2.829 2 2 0 0 0-2.829 2.829zm-6.364-6.364a2 2 0 1 0 2.829-2.829 2 2 0 0 0-2.829 2.829zm-6.364-6.364a2 2 0 1 0 2.829-2.828 2 2 0 0 0-2.829 2.828zm-6.364-6.364a2 2 0 1 0 2.829-2.828 2 2 0 0 0-2.829 2.828zm-6.364-6.364a2 2 0 1 0 2.829-2.828 2 2 0 0 0-2.829 2.828zm-6.364-6.364a2 2 0 1 0 2.829-2.828 2 2 0 0 0-2.829 2.828zm-6.364-6.364a2 2 0 1 0 2.829-2.828 2 2 0 0 0-2.829 2.828zm-6.364-6.364a2 2 0 1 0 2.829-2.828 2 2 0 0 0-2.829 2.828zm-6.364-6.364a2 2 0 1 0 2.829-2.828 2 2 0 0 0-2.829 2.828zm-6.363-6.364a2 2 0 1 0 2.828-2.828 2 2 0 0 0-2.828 2.828zm-6.364-6.364a2 2 0 1 0 2.828-2.828 2 2 0 0 0-2.828 2.828zm-6.364-6.364a2 2 0 1 0 2.828-2.828 2 2 0 0 0-2.828 2.828zm-6.364-6.364a2 2 0 1 0 2.828-2.828 2 2 0 0 0-2.828 2.828zm-6.364-6.364a2 2 0 1 0 2.828-2.828 2 2 0 0 0-2.828 2.828zm-6.364-6.364a2 2 0 1 0 2.828-2.828 2 2 0 0 0-2.828 2.828zm-6.364-6.364a2 2 0 1 0 2.828-2.828 2 2 0 0 0-2.828 2.828zm-6.364-6.363a2 2 0 1 0 2.828-2.829 2 2 0 0 0-2.828 2.829zm-6.364-6.364a2 2 0 1 0 2.828-2.829 2 2 0 0 0-2.828 2.829zm-6.364-6.364a2 2 0 1 0 2.828-2.829 2 2 0 0 0-2.828 2.829zm-6.364-6.364a2 2 0 1 0 2.828-2.829 2 2 0 0 0-2.828 2.829zm-6.364-6.364a2 2 0 1 0 2.828-2.829 2 2 0 0 0-2.828 2.829zm-6.364-6.364a2 2 0 1 0 2.828-2.829 2 2 0 0 0-2.828 2.829zm-6.364-6.364a2 2 0 1 0 2.828-2.829 2 2 0 0 0-2.828 2.829zm-6.364-6.364a2 2 0 1 0 2.829-2.829 2 2 0 0 0-2.829 2.829zm-6.364-6.364a2 2 0 1 0 2.829-2.829 2 2 0 0 0-2.829 2.829zm-6.364-6.364a2 2 0 1 0 2.829-2.829 2 2 0 0 0-2.829 2.829zm159.099 171.827a2 2 0 1 0 2.829-2.829 2 2 0 0 0-2.829 2.829zm-6.364-6.364a2 2 0 1 0 2.829-2.829 2 2 0 0 0-2.829 2.829zm-6.364-6.364a2 2 0 1 0 2.829-2.829 2 2 0 0 0-2.829 2.829zm-6.364-6.364a2 2 0 1 0 2.829-2.829 2 2 0 0 0-2.829 2.829zm-6.364-6.364a2 2 0 1 0 2.829-2.828 2 2 0 0 0-2.829 2.828zm-6.364-6.364a2 2 0 1 0 2.829-2.828 2 2 0 0 0-2.829 2.828zm-6.364-6.364a2 2 0 1 0 2.829-2.828 2 2 0 0 0-2.829 2.828zm-6.364-6.364a2 2 0 1 0 2.829-2.828 2 2 0 0 0-2.829 2.828zm-6.364-6.364a2 2 0 1 0 2.829-2.828 2 2 0 0 0-2.829 2.828zm-6.363-6.364a2 2 0 1 0 2.828-2.828 2 2 0 0 0-2.828 2.828zm-6.364-6.364a2 2 0 1 0 2.828-2.828 2 2 0 0 0-2.828 2.828zm-6.364-6.364a2 2 0 1 0 2.828-2.828 2 2 0 0 0-2.828 2.828zm-6.364-6.364a2 2 0 1 0 2.828-2.828 2 2 0 0 0-2.828 2.828zm-6.364-6.364a2 2 0 1 0 2.828-2.828 2 2 0 0 0-2.828 2.828zm-6.364-6.364a2 2 0 1 0 2.828-2.828 2 2 0 0 0-2.828 2.828zm-6.364-6.364a2 2 0 1 0 2.828-2.828 2 2 0 0 0-2.828 2.828zm-6.364-6.364a2 2 0 1 0 2.828-2.828 2 2 0 0 0-2.828 2.828zm-6.364-6.364a2 2 0 1 0 2.828-2.828 2 2 0 0 0-2.828 2.828zm-6.364-6.363a2 2 0 1 0 2.828-2.829 2 2 0 0 0-2.828 2.829zm-6.364-6.364a2 2 0 1 0 2.828-2.829 2 2 0 0 0-2.828 2.829zm-6.364-6.364a2 2 0 1 0 2.828-2.829 2 2 0 0 0-2.828 2.829zm-6.364-6.364a2 2 0 1 0 2.828-2.829 2 2 0 0 0-2.828 2.829zm-6.364-6.364a2 2 0 1 0 2.828-2.829 2 2 0 0 0-2.828 2.829zm-6.364-6.364a2 2 0 1 0 2.829-2.829 2 2 0 0 0-2.829 2.829zm-6.364-6.364a2 2 0 1 0 2.829-2.829 2 2 0 0 0-2.829 2.829zm-6.364-6.364a2 2 0 1 0 2.829-2.829 2 2 0 0 0-2.829 2.829zm-6.364-6.364a2 2 0 1 0 2.829-2.829 2 2 0 0 0-2.829 2.829zM178.75 589.713a2 2 0 1 0 2.829-2.829 2 2 0 0 0-2.829 2.829zm-6.364-6.364a2 2 0 1 0 2.829-2.829 2 2 0 0 0-2.829 2.829zm-6.364-6.364a2 2 0 1 0 2.829-2.829 2 2 0 0 0-2.829 2.829zm-6.364-6.364a2 2 0 1 0 2.829-2.829 2 2 0 0 0-2.829 2.829zm-6.364-6.364a2 2 0 1 0 2.829-2.829 2 2 0 0 0-2.829 2.829zm-6.364-6.364a2 2 0 1 0 2.829-2.828 2 2 0 0 0-2.829 2.828zm-6.364-6.364a2 2 0 1 0 2.829-2.828 2 2 0 0 0-2.829 2.828zm-6.364-6.364a2 2 0 1 0 2.829-2.828 2 2 0 0 0-2.829 2.828zm-6.363-6.364a2 2 0 1 0 2.828-2.828 2 2 0 0 0-2.828 2.828zm-6.364-6.364a2 2 0 1 0 2.828-2.828 2 2 0 0 0-2.828 2.828zm-6.364-6.364a2 2 0 1 0 2.828-2.828 2 2 0 0 0-2.828 2.828zm-6.364-6.364a2 2 0 1 0 2.828-2.828 2 2 0 0 0-2.828 2.828zm-6.364-6.364a2 2 0 1 0 2.828-2.828 2 2 0 0 0-2.828 2.828zm-6.364-6.364a2 2 0 1 0 2.828-2.828 2 2 0 0 0-2.828 2.828zm-6.364-6.364a2 2 0 1 0 2.828-2.828 2 2 0 0 0-2.828 2.828zm-6.364-6.364a2 2 0 1 0 2.828-2.828 2 2 0 0 0-2.828 2.828zm-6.364-6.364a2 2 0 1 0 2.828-2.828 2 2 0 0 0-2.828 2.828zm-6.364-6.364a2 2 0 1 0 2.828-2.828 2 2 0 0 0-2.828 2.828zm-6.364-6.364a2 2 0 1 0 2.828-2.828 2 2 0 0 0-2.828 2.828zm-6.364-6.363a2 2 0 1 0 2.828-2.829 2 2 0 0 0-2.828 2.829zm-6.364-6.364a2 2 0 1 0 2.828-2.829 2 2 0 0 0-2.828 2.829zm-6.364-6.364a2 2 0 1 0 2.828-2.829 2 2 0 0 0-2.828 2.829zm-6.364-6.364a2 2 0 1 0 2.829-2.829 2 2 0 0 0-2.829 2.829zm-6.364-6.364a2 2 0 1 0 2.829-2.829 2 2 0 0 0-2.829 2.829zm-6.364-6.364a2 2 0 1 0 2.829-2.829 2 2 0 0 0-2.829 2.829zm-6.364-6.364a2 2 0 1 0 2.829-2.829 2 2 0 0 0-2.829 2.829zm-6.364-6.364a2 2 0 1 0 2.829-2.829 2 2 0 0 0-2.829 2.829zm159.099 171.827a2 2 0 1 0 2.829-2.829 2 2 0 0 0-2.829 2.829zm-6.364-6.364a2 2 0 1 0 2.829-2.829 2 2 0 0 0-2.829 2.829zm-6.364-6.364a2 2 0 1 0 2.829-2.829 2 2 0 0 0-2.829 2.829zm-6.364-6.364a2 2 0 1 0 2.829-2.829 2 2 0 0 0-2.829 2.829zm-6.364-6.364a2 2 0 1 0 2.829-2.829 2 2 0 0 0-2.829 2.829zm-6.364-6.364a2 2 0 1 0 2.829-2.829 2 2 0 0 0-2.829 2.829zm-6.364-6.364a2 2 0 1 0 2.829-2.828 2 2 0 0 0-2.829 2.828zm-6.363-6.364a2 2 0 1 0 2.828-2.828 2 2 0 0 0-2.828 2.828zm-6.364-6.364a2 2 0 1 0 2.828-2.828 2 2 0 0 0-2.828 2.828zm-6.364-6.364a2 2 0 1 0 2.828-2.828 2 2 0 0 0-2.828 2.828zm-6.364-6.364a2 2 0 1 0 2.828-2.828 2 2 0 0 0-2.828 2.828zm-6.364-6.364a2 2 0 1 0 2.828-2.828 2 2 0 0 0-2.828 2.828zm-6.364-6.364a2 2 0 1 0 2.828-2.828 2 2 0 0 0-2.828 2.828zm-6.364-6.364a2 2 0 1 0 2.828-2.828 2 2 0 0 0-2.828 2.828zm-6.364-6.364a2 2 0 1 0 2.828-2.828 2 2 0 0 0-2.828 2.828zm-6.364-6.364a2 2 0 1 0 2.828-2.828 2 2 0 0 0-2.828 2.828zm-6.364-6.364a2 2 0 1 0 2.828-2.828 2 2 0 0 0-2.828 2.828zm-6.364-6.364a2 2 0 1 0 2.828-2.828 2 2 0 0 0-2.828 2.828zm-6.364-6.364a2 2 0 1 0 2.828-2.828 2 2 0 0 0-2.828 2.828zm-6.364-6.364a2 2 0 1 0 2.828-2.828 2 2 0 0 0-2.828 2.828zm-6.364-6.363a2 2 0 1 0 2.828-2.829 2 2 0 0 0-2.828 2.829zm-6.364-6.364a2 2 0 1 0 2.829-2.829 2 2 0 0 0-2.829 2.829zm-6.364-6.364a2 2 0 1 0 2.829-2.829 2 2 0 0 0-2.829 2.829zm-6.364-6.364a2 2 0 1 0 2.829-2.829 2 2 0 0 0-2.829 2.829zm-6.364-6.364a2 2 0 1 0 2.829-2.829 2 2 0 0 0-2.829 2.829zm-6.364-6.364a2 2 0 1 0 2.829-2.829 2 2 0 0 0-2.829 2.829zm-6.364-6.364a2 2 0 1 0 2.829-2.829 2 2 0 0 0-2.829 2.829zM166.022 602.44a2 2 0 1 0 2.829-2.828 2 2 0 0 0-2.829 2.829zm-6.364-6.363a2 2 0 1 0 2.829-2.829 2 2 0 0 0-2.829 2.829zm-6.364-6.364a2 2 0 1 0 2.829-2.829 2 2 0 0 0-2.829 2.829zm-6.364-6.364a2 2 0 1 0 2.829-2.829 2 2 0 0 0-2.829 2.829zm-6.364-6.364a2 2 0 1 0 2.829-2.829 2 2 0 0 0-2.829 2.829zm-6.364-6.364a2 2 0 1 0 2.829-2.829 2 2 0 0 0-2.829 2.829zm-6.363-6.364a2 2 0 1 0 2.828-2.829 2 2 0 0 0-2.828 2.829zm-6.364-6.364a2 2 0 1 0 2.828-2.828 2 2 0 0 0-2.828 2.828zm-6.364-6.364a2 2 0 1 0 2.828-2.828 2 2 0 0 0-2.828 2.828zm-6.364-6.364a2 2 0 1 0 2.828-2.828 2 2 0 0 0-2.828 2.828zm-6.364-6.364a2 2 0 1 0 2.828-2.828 2 2 0 0 0-2.828 2.828zm-6.364-6.364a2 2 0 1 0 2.828-2.828 2 2 0 0 0-2.828 2.828zm-6.364-6.364a2 2 0 1 0 2.828-2.828 2 2 0 0 0-2.828 2.828zm-6.364-6.364a2 2 0 1 0 2.828-2.828 2 2 0 0 0-2.828 2.828zm-6.364-6.364a2 2 0 1 0 2.828-2.828 2 2 0 0 0-2.828 2.828zm-6.364-6.364a2 2 0 1 0 2.828-2.828 2 2 0 0 0-2.828 2.828zm-6.364-6.364a2 2 0 1 0 2.828-2.828 2 2 0 0 0-2.828 2.828zm-6.364-6.364a2 2 0 1 0 2.828-2.828 2 2 0 0 0-2.828 2.828zm-6.364-6.364a2 2 0 1 0 2.828-2.828 2 2 0 0 0-2.828 2.828zm-6.364-6.364a2 2 0 1 0 2.828-2.828 2 2 0 0 0-2.828 2.828zm-6.364-6.364a2 2 0 1 0 2.829-2.828 2 2 0 0 0-2.829 2.828zm-6.364-6.363a2 2 0 1 0 2.829-2.829 2 2 0 0 0-2.829 2.829zm-6.364-6.364a2 2 0 1 0 2.829-2.829 2 2 0 0 0-2.829 2.829zm-6.364-6.364a2 2 0 1 0 2.829-2.829 2 2 0 0 0-2.829 2.829zm-6.364-6.364a2 2 0 1 0 2.829-2.829 2 2 0 0 0-2.829 2.829zm-6.364-6.364a2 2 0 1 0 2.829-2.829 2 2 0 0 0-2.829 2.829zM.56 436.978a2 2 0 1 0 2.829-2.829 2 2 0 0 0-2.829 2.829z" fill="#FFF" opacity=".4"/><path d="M37-1h106v106H37z"/><path d="M43.158 3.62A2 2 0 1 1 40.329.793a2 2 0 0 1 2.829 2.829zm6.364-6.363a2 2 0 1 1-2.829-2.829 2 2 0 0 1 2.829 2.829zm6.364-6.364a2 2 0 1 1-2.829-2.828 2 2 0 0 1 2.829 2.828zm6.364-6.364a2 2 0 1 1-2.829-2.828 2 2 0 0 1 2.829 2.828zm6.364-6.364a2 2 0 1 1-2.829-2.828 2 2 0 0 1 2.829 2.828zm6.364-6.364a2 2 0 1 1-2.829-2.828 2 2 0 0 1 2.829 2.828zm6.364-6.364a2 2 0 1 1-2.829-2.828 2 2 0 0 1 2.829 2.828zm6.364-6.364a2 2 0 1 1-2.829-2.828 2 2 0 0 1 2.829 2.828zm6.364-6.364a2 2 0 1 1-2.829-2.828 2 2 0 0 1 2.829 2.828zm6.364-6.364a2 2 0 1 1-2.829-2.828 2 2 0 0 1 2.829 2.828zm6.364-6.364a2 2 0 1 1-2.829-2.828 2 2 0 0 1 2.829 2.828zm6.363-6.364a2 2 0 1 1-2.828-2.828 2 2 0 0 1 2.828 2.828zm6.364-6.364a2 2 0 1 1-2.828-2.828 2 2 0 0 1 2.828 2.828zm6.364-6.364a2 2 0 1 1-2.828-2.828 2 2 0 0 1 2.828 2.828zm6.364-6.364a2 2 0 1 1-2.828-2.828 2 2 0 0 1 2.828 2.828zm6.364-6.364a2 2 0 1 1-2.828-2.828 2 2 0 0 1 2.828 2.828zm6.364-6.363a2 2 0 1 1-2.828-2.829 2 2 0 0 1 2.828 2.829zm6.364-6.364a2 2 0 1 1-2.828-2.829 2 2 0 0 1 2.828 2.829zm6.364-6.364a2 2 0 1 1-2.828-2.829 2 2 0 0 1 2.828 2.829zm6.364-6.364a2 2 0 1 1-2.828-2.829 2 2 0 0 1 2.828 2.829zm6.364-6.364a2 2 0 1 1-2.828-2.829 2 2 0 0 1 2.828 2.829zm6.364-6.364a2 2 0 1 1-2.828-2.829 2 2 0 0 1 2.828 2.829zm6.364-6.364a2 2 0 1 1-2.828-2.829 2 2 0 0 1 2.828 2.829zm6.364-6.364a2 2 0 1 1-2.828-2.829 2 2 0 0 1 2.828 2.829zm6.364-6.364a2 2 0 1 1-2.828-2.829 2 2 0 0 1 2.828 2.829zm6.364-6.364a2 2 0 1 1-2.829-2.829 2 2 0 0 1 2.829 2.829zm6.364-6.364a2 2 0 1 1-2.829-2.829 2 2 0 0 1 2.829 2.829zM49.522 9.985a2 2 0 1 1-2.829-2.829 2 2 0 0 1 2.829 2.829zm6.364-6.364A2 2 0 1 1 53.057.792a2 2 0 0 1 2.829 2.829zm6.364-6.364a2 2 0 1 1-2.829-2.829 2 2 0 0 1 2.829 2.829zm6.364-6.364a2 2 0 1 1-2.829-2.828 2 2 0 0 1 2.829 2.828zm6.364-6.364a2 2 0 1 1-2.829-2.828 2 2 0 0 1 2.829 2.828zm6.364-6.364a2 2 0 1 1-2.829-2.828 2 2 0 0 1 2.829 2.828zm6.364-6.364a2 2 0 1 1-2.829-2.828 2 2 0 0 1 2.829 2.828zm6.364-6.364a2 2 0 1 1-2.829-2.828 2 2 0 0 1 2.829 2.828zm6.364-6.364a2 2 0 1 1-2.829-2.828 2 2 0 0 1 2.829 2.828zm6.364-6.364a2 2 0 1 1-2.829-2.828 2 2 0 0 1 2.829 2.828zm6.363-6.364a2 2 0 1 1-2.828-2.828 2 2 0 0 1 2.828 2.828zm6.364-6.364a2 2 0 1 1-2.828-2.828 2 2 0 0 1 2.828 2.828zm6.364-6.364a2 2 0 1 1-2.828-2.828 2 2 0 0 1 2.828 2.828zm6.364-6.364a2 2 0 1 1-2.828-2.828 2 2 0 0 1 2.828 2.828zm6.364-6.364a2 2 0 1 1-2.828-2.828 2 2 0 0 1 2.828 2.828zm6.364-6.364a2 2 0 1 1-2.828-2.828 2 2 0 0 1 2.828 2.828zm6.364-6.364a2 2 0 1 1-2.828-2.828 2 2 0 0 1 2.828 2.828zm6.364-6.363a2 2 0 1 1-2.828-2.829 2 2 0 0 1 2.828 2.829zm6.364-6.364a2 2 0 1 1-2.828-2.829 2 2 0 0 1 2.828 2.829zm6.364-6.364a2 2 0 1 1-2.828-2.829 2 2 0 0 1 2.828 2.829zm6.364-6.364a2 2 0 1 1-2.828-2.829 2 2 0 0 1 2.828 2.829zm6.364-6.364a2 2 0 1 1-2.828-2.829 2 2 0 0 1 2.828 2.829zm6.364-6.364a2 2 0 1 1-2.828-2.829 2 2 0 0 1 2.828 2.829zm6.364-6.364a2 2 0 1 1-2.828-2.829 2 2 0 0 1 2.828 2.829zm6.364-6.364a2 2 0 1 1-2.829-2.829 2 2 0 0 1 2.829 2.829zm6.364-6.364a2 2 0 1 1-2.829-2.829 2 2 0 0 1 2.829 2.829zm6.364-6.364a2 2 0 1 1-2.829-2.829 2 2 0 0 1 2.829 2.829zM55.886 16.349a2 2 0 1 1-2.829-2.829 2 2 0 0 1 2.829 2.829zm6.364-6.364a2 2 0 1 1-2.829-2.829 2 2 0 0 1 2.829 2.829zm6.364-6.364A2 2 0 1 1 65.785.792a2 2 0 0 1 2.829 2.829zm6.364-6.364a2 2 0 1 1-2.829-2.829 2 2 0 0 1 2.829 2.829zm6.364-6.364a2 2 0 1 1-2.829-2.828 2 2 0 0 1 2.829 2.828zm6.364-6.364a2 2 0 1 1-2.829-2.828 2 2 0 0 1 2.829 2.828zm6.364-6.364a2 2 0 1 1-2.829-2.828 2 2 0 0 1 2.829 2.828zm6.364-6.364a2 2 0 1 1-2.829-2.828 2 2 0 0 1 2.829 2.828zm6.364-6.364a2 2 0 1 1-2.829-2.828 2 2 0 0 1 2.829 2.828zm6.363-6.364a2 2 0 1 1-2.828-2.828 2 2 0 0 1 2.828 2.828zm6.364-6.364a2 2 0 1 1-2.828-2.828 2 2 0 0 1 2.828 2.828zm6.364-6.364a2 2 0 1 1-2.828-2.828 2 2 0 0 1 2.828 2.828zm6.364-6.364a2 2 0 1 1-2.828-2.828 2 2 0 0 1 2.828 2.828zm6.364-6.364a2 2 0 1 1-2.828-2.828 2 2 0 0 1 2.828 2.828zm6.364-6.364a2 2 0 1 1-2.828-2.828 2 2 0 0 1 2.828 2.828zm6.364-6.364a2 2 0 1 1-2.828-2.828 2 2 0 0 1 2.828 2.828zm6.364-6.364a2 2 0 1 1-2.828-2.828 2 2 0 0 1 2.828 2.828zm6.364-6.364a2 2 0 1 1-2.828-2.828 2 2 0 0 1 2.828 2.828zm6.364-6.363a2 2 0 1 1-2.828-2.829 2 2 0 0 1 2.828 2.829zm6.364-6.364a2 2 0 1 1-2.828-2.829 2 2 0 0 1 2.828 2.829zm6.364-6.364a2 2 0 1 1-2.828-2.829 2 2 0 0 1 2.828 2.829zm6.364-6.364a2 2 0 1 1-2.828-2.829 2 2 0 0 1 2.828 2.829zm6.364-6.364a2 2 0 1 1-2.828-2.829 2 2 0 0 1 2.828 2.829zm6.364-6.364a2 2 0 1 1-2.829-2.829 2 2 0 0 1 2.829 2.829zm6.364-6.364a2 2 0 1 1-2.829-2.829 2 2 0 0 1 2.829 2.829zm6.364-6.364a2 2 0 1 1-2.829-2.829 2 2 0 0 1 2.829 2.829zm6.364-6.364a2 2 0 1 1-2.829-2.829 2 2 0 0 1 2.829 2.829zM62.25 22.713a2 2 0 1 1-2.829-2.829 2 2 0 0 1 2.829 2.829zm6.364-6.364a2 2 0 1 1-2.829-2.829 2 2 0 0 1 2.829 2.829zm6.364-6.364a2 2 0 1 1-2.829-2.829 2 2 0 0 1 2.829 2.829zm6.364-6.364A2 2 0 1 1 78.513.792a2 2 0 0 1 2.829 2.829zm6.364-6.364a2 2 0 1 1-2.829-2.829 2 2 0 0 1 2.829 2.829zm6.364-6.364a2 2 0 1 1-2.829-2.828 2 2 0 0 1 2.829 2.828zm6.364-6.364a2 2 0 1 1-2.829-2.828 2 2 0 0 1 2.829 2.828zm6.364-6.364a2 2 0 1 1-2.829-2.828 2 2 0 0 1 2.829 2.828zm6.363-6.364a2 2 0 1 1-2.828-2.828 2 2 0 0 1 2.828 2.828zm6.364-6.364a2 2 0 1 1-2.828-2.828 2 2 0 0 1 2.828 2.828zm6.364-6.364a2 2 0 1 1-2.828-2.828 2 2 0 0 1 2.828 2.828zm6.364-6.364a2 2 0 1 1-2.828-2.828 2 2 0 0 1 2.828 2.828zm6.364-6.364a2 2 0 1 1-2.828-2.828 2 2 0 0 1 2.828 2.828zm6.364-6.364a2 2 0 1 1-2.828-2.828 2 2 0 0 1 2.828 2.828zm6.364-6.364a2 2 0 1 1-2.828-2.828 2 2 0 0 1 2.828 2.828zm6.364-6.364a2 2 0 1 1-2.828-2.828 2 2 0 0 1 2.828 2.828zm6.364-6.364a2 2 0 1 1-2.828-2.828 2 2 0 0 1 2.828 2.828zm6.364-6.364a2 2 0 1 1-2.828-2.828 2 2 0 0 1 2.828 2.828zm6.364-6.364a2 2 0 1 1-2.828-2.828 2 2 0 0 1 2.828 2.828zm6.364-6.363a2 2 0 1 1-2.828-2.829 2 2 0 0 1 2.828 2.829zm6.364-6.364a2 2 0 1 1-2.828-2.829 2 2 0 0 1 2.828 2.829zm6.364-6.364a2 2 0 1 1-2.828-2.829 2 2 0 0 1 2.828 2.829zm6.364-6.364a2 2 0 1 1-2.829-2.829 2 2 0 0 1 2.829 2.829zm6.364-6.364a2 2 0 1 1-2.829-2.829 2 2 0 0 1 2.829 2.829zm6.364-6.364a2 2 0 1 1-2.829-2.829 2 2 0 0 1 2.829 2.829zm6.364-6.364a2 2 0 1 1-2.829-2.829 2 2 0 0 1 2.829 2.829zm6.364-6.364a2 2 0 1 1-2.829-2.829 2 2 0 0 1 2.829 2.829zM68.614 29.077a2 2 0 1 1-2.829-2.829 2 2 0 0 1 2.829 2.829zm6.364-6.364a2 2 0 1 1-2.829-2.829 2 2 0 0 1 2.829 2.829zm6.364-6.364a2 2 0 1 1-2.829-2.829 2 2 0 0 1 2.829 2.829zm6.364-6.364a2 2 0 1 1-2.829-2.829 2 2 0 0 1 2.829 2.829zM94.07 3.62A2 2 0 1 1 91.24.792a2 2 0 0 1 2.829 2.829zm6.364-6.364a2 2 0 1 1-2.829-2.829 2 2 0 0 1 2.829 2.829zm6.364-6.364a2 2 0 1 1-2.829-2.828 2 2 0 0 1 2.829 2.828zm6.363-6.364a2 2 0 1 1-2.828-2.828 2 2 0 0 1 2.828 2.828zm6.364-6.364a2 2 0 1 1-2.828-2.828 2 2 0 0 1 2.828 2.828zm6.364-6.364a2 2 0 1 1-2.828-2.828 2 2 0 0 1 2.828 2.828zm6.364-6.364a2 2 0 1 1-2.828-2.828 2 2 0 0 1 2.828 2.828zm6.364-6.364a2 2 0 1 1-2.828-2.828 2 2 0 0 1 2.828 2.828zm6.364-6.364a2 2 0 1 1-2.828-2.828 2 2 0 0 1 2.828 2.828zm6.364-6.364a2 2 0 1 1-2.828-2.828 2 2 0 0 1 2.828 2.828zm6.364-6.364a2 2 0 1 1-2.828-2.828 2 2 0 0 1 2.828 2.828zm6.364-6.364a2 2 0 1 1-2.828-2.828 2 2 0 0 1 2.828 2.828zm6.364-6.364a2 2 0 1 1-2.828-2.828 2 2 0 0 1 2.828 2.828zm6.364-6.364a2 2 0 1 1-2.828-2.828 2 2 0 0 1 2.828 2.828zm6.364-6.364a2 2 0 1 1-2.828-2.828 2 2 0 0 1 2.828 2.828zm6.364-6.364a2 2 0 1 1-2.828-2.828 2 2 0 0 1 2.828 2.828zm6.364-6.363a2 2 0 1 1-2.828-2.829 2 2 0 0 1 2.828 2.829zm6.364-6.364a2 2 0 1 1-2.829-2.829 2 2 0 0 1 2.829 2.829zm6.364-6.364a2 2 0 1 1-2.829-2.829 2 2 0 0 1 2.829 2.829zm6.364-6.364a2 2 0 1 1-2.829-2.829 2 2 0 0 1 2.829 2.829zm6.364-6.364a2 2 0 1 1-2.829-2.829 2 2 0 0 1 2.829 2.829zm6.364-6.364a2 2 0 1 1-2.829-2.829 2 2 0 0 1 2.829 2.829zm6.364-6.364a2 2 0 1 1-2.829-2.829 2 2 0 0 1 2.829 2.829zM74.978 35.44a2 2 0 1 1-2.829-2.828 2 2 0 0 1 2.829 2.829zm6.364-6.363a2 2 0 1 1-2.829-2.829 2 2 0 0 1 2.829 2.829zm6.364-6.364a2 2 0 1 1-2.829-2.829 2 2 0 0 1 2.829 2.829zm6.364-6.364a2 2 0 1 1-2.829-2.829 2 2 0 0 1 2.829 2.829zm6.364-6.364a2 2 0 1 1-2.829-2.829 2 2 0 0 1 2.829 2.829zm6.364-6.364a2 2 0 1 1-2.829-2.829 2 2 0 0 1 2.829 2.829zm6.363-6.364a2 2 0 1 1-2.828-2.829 2 2 0 0 1 2.828 2.829zm6.364-6.364a2 2 0 1 1-2.828-2.828 2 2 0 0 1 2.828 2.828zm6.364-6.364a2 2 0 1 1-2.828-2.828 2 2 0 0 1 2.828 2.828zm6.364-6.364a2 2 0 1 1-2.828-2.828 2 2 0 0 1 2.828 2.828zm6.364-6.364a2 2 0 1 1-2.828-2.828 2 2 0 0 1 2.828 2.828zm6.364-6.364a2 2 0 1 1-2.828-2.828 2 2 0 0 1 2.828 2.828zm6.364-6.364a2 2 0 1 1-2.828-2.828 2 2 0 0 1 2.828 2.828zm6.364-6.364a2 2 0 1 1-2.828-2.828 2 2 0 0 1 2.828 2.828zm6.364-6.364a2 2 0 1 1-2.828-2.828 2 2 0 0 1 2.828 2.828zm6.364-6.364a2 2 0 1 1-2.828-2.828 2 2 0 0 1 2.828 2.828zm6.364-6.364a2 2 0 1 1-2.828-2.828 2 2 0 0 1 2.828 2.828zm6.364-6.364a2 2 0 1 1-2.828-2.828 2 2 0 0 1 2.828 2.828zm6.364-6.364a2 2 0 1 1-2.828-2.828 2 2 0 0 1 2.828 2.828zm6.364-6.364a2 2 0 1 1-2.828-2.828 2 2 0 0 1 2.828 2.828zm6.364-6.364a2 2 0 1 1-2.829-2.828 2 2 0 0 1 2.829 2.828zm6.364-6.363a2 2 0 1 1-2.829-2.829 2 2 0 0 1 2.829 2.829zm6.364-6.364a2 2 0 1 1-2.829-2.829 2 2 0 0 1 2.829 2.829zm6.364-6.364a2 2 0 1 1-2.829-2.829 2 2 0 0 1 2.829 2.829zm6.364-6.364a2 2 0 1 1-2.829-2.829 2 2 0 0 1 2.829 2.829zm6.364-6.364a2 2 0 1 1-2.829-2.829 2 2 0 0 1 2.829 2.829zm6.364-6.364a2 2 0 1 1-2.829-2.829 2 2 0 0 1 2.829 2.829zM81.342 41.805a2 2 0 1 1-2.829-2.829 2 2 0 0 1 2.829 2.829zm6.364-6.364a2 2 0 1 1-2.829-2.829 2 2 0 0 1 2.829 2.829zm6.364-6.364a2 2 0 1 1-2.829-2.829 2 2 0 0 1 2.829 2.829zm6.364-6.364a2 2 0 1 1-2.829-2.829 2 2 0 0 1 2.829 2.829zm6.364-6.364a2 2 0 1 1-2.829-2.829 2 2 0 0 1 2.829 2.829zm6.363-6.364a2 2 0 1 1-2.828-2.829 2 2 0 0 1 2.828 2.829zm6.364-6.364a2 2 0 1 1-2.828-2.829 2 2 0 0 1 2.828 2.829zm6.364-6.364a2 2 0 1 1-2.828-2.829 2 2 0 0 1 2.828 2.829zm6.364-6.364a2 2 0 1 1-2.828-2.828 2 2 0 0 1 2.828 2.828zm6.364-6.364a2 2 0 1 1-2.828-2.828 2 2 0 0 1 2.828 2.828zm6.364-6.364a2 2 0 1 1-2.828-2.828 2 2 0 0 1 2.828 2.828zm6.364-6.364a2 2 0 1 1-2.828-2.828 2 2 0 0 1 2.828 2.828zm6.364-6.364a2 2 0 1 1-2.828-2.828 2 2 0 0 1 2.828 2.828zm6.364-6.364a2 2 0 1 1-2.828-2.828 2 2 0 0 1 2.828 2.828zm6.364-6.364a2 2 0 1 1-2.828-2.828 2 2 0 0 1 2.828 2.828zm6.364-6.364a2 2 0 1 1-2.828-2.828 2 2 0 0 1 2.828 2.828zm6.364-6.364a2 2 0 1 1-2.828-2.828 2 2 0 0 1 2.828 2.828zm6.364-6.364a2 2 0 1 1-2.828-2.828 2 2 0 0 1 2.828 2.828zm6.364-6.364a2 2 0 1 1-2.828-2.828 2 2 0 0 1 2.828 2.828zm6.364-6.364a2 2 0 1 1-2.829-2.828 2 2 0 0 1 2.829 2.828zm6.364-6.364a2 2 0 1 1-2.829-2.828 2 2 0 0 1 2.829 2.828zm6.364-6.364a2 2 0 1 1-2.829-2.828 2 2 0 0 1 2.829 2.828zm6.364-6.363a2 2 0 1 1-2.829-2.829 2 2 0 0 1 2.829 2.829zm6.364-6.364a2 2 0 1 1-2.829-2.829 2 2 0 0 1 2.829 2.829zm6.364-6.364a2 2 0 1 1-2.829-2.829 2 2 0 0 1 2.829 2.829zm6.364-6.364a2 2 0 1 1-2.829-2.829 2 2 0 0 1 2.829 2.829zm6.364-6.364a2 2 0 1 1-2.829-2.829 2 2 0 0 1 2.829 2.829zM87.706 48.169a2 2 0 1 1-2.829-2.829 2 2 0 0 1 2.829 2.829zm6.364-6.364a2 2 0 1 1-2.829-2.829 2 2 0 0 1 2.829 2.829zm6.364-6.364a2 2 0 1 1-2.829-2.829 2 2 0 0 1 2.829 2.829zm6.364-6.364a2 2 0 1 1-2.829-2.829 2 2 0 0 1 2.829 2.829zm6.363-6.364a2 2 0 1 1-2.828-2.829 2 2 0 0 1 2.828 2.829zm6.364-6.364a2 2 0 1 1-2.828-2.829 2 2 0 0 1 2.828 2.829zm6.364-6.364a2 2 0 1 1-2.828-2.829 2 2 0 0 1 2.828 2.829zm6.364-6.364a2 2 0 1 1-2.828-2.829 2 2 0 0 1 2.828 2.829zm6.364-6.364a2 2 0 1 1-2.828-2.829 2 2 0 0 1 2.828 2.829zm6.364-6.364a2 2 0 1 1-2.828-2.828 2 2 0 0 1 2.828 2.828zm6.364-6.364a2 2 0 1 1-2.828-2.828 2 2 0 0 1 2.828 2.828zm6.364-6.364a2 2 0 1 1-2.828-2.828 2 2 0 0 1 2.828 2.828zm6.364-6.364a2 2 0 1 1-2.828-2.828 2 2 0 0 1 2.828 2.828zm6.364-6.364a2 2 0 1 1-2.828-2.828 2 2 0 0 1 2.828 2.828zm6.364-6.364a2 2 0 1 1-2.828-2.828 2 2 0 0 1 2.828 2.828zm6.364-6.364a2 2 0 1 1-2.828-2.828 2 2 0 0 1 2.828 2.828zm6.364-6.364a2 2 0 1 1-2.828-2.828 2 2 0 0 1 2.828 2.828zm6.364-6.364a2 2 0 1 1-2.828-2.828 2 2 0 0 1 2.828 2.828zm6.364-6.364a2 2 0 1 1-2.829-2.828 2 2 0 0 1 2.829 2.828zm6.364-6.364a2 2 0 1 1-2.829-2.828 2 2 0 0 1 2.829 2.828zm6.364-6.364a2 2 0 1 1-2.829-2.828 2 2 0 0 1 2.829 2.828zm6.364-6.364a2 2 0 1 1-2.829-2.828 2 2 0 0 1 2.829 2.828zm6.364-6.364a2 2 0 1 1-2.829-2.828 2 2 0 0 1 2.829 2.828zm6.364-6.363a2 2 0 1 1-2.829-2.829 2 2 0 0 1 2.829 2.829zm6.364-6.364a2 2 0 1 1-2.829-2.829 2 2 0 0 1 2.829 2.829zm6.364-6.364a2 2 0 1 1-2.829-2.829 2 2 0 0 1 2.829 2.829zm6.364-6.364a2 2 0 1 1-2.829-2.829 2 2 0 0 1 2.829 2.829z" fill="#FFF" opacity=".404"/></g></svg>