<svg width="1091" height="397" viewBox="0 0 1091 397" xmlns="http://www.w3.org/2000/svg" xmlns:xlink="http://www.w3.org/1999/xlink"><title>Group 56</title><defs><path id="a" d="M0 0h1098v397H0z"/><linearGradient x1="100%" y1="0%" x2="0%" y2="100%" id="c"><stop stop-color="#68A5FF" offset="0%"/><stop stop-color="#4BE7C4" stop-opacity=".7" offset="100%"/></linearGradient><linearGradient x1="100%" y1="-2.592%" x2="6.654%" y2="104.377%" id="d"><stop stop-color="#3B407E" offset="0%"/><stop stop-color="#222550" offset="100%"/></linearGradient></defs><g fill="none" fill-rule="evenodd"><mask id="b" fill="#fff"><use xlink:href="#a"/></mask><g mask="url(#b)"><path d="M.003 99.778c0-.678 111.91-20.45 194.072 90.408 82.161 113.762 56.815 294.185 179.862 213.738 71.523-44.505 117.676-110.932 164.918-159.846 47.241-47.826 95.574-78.138 171.455-25.266 70.648 50.584 87.902 138.148 105.589 210.266 17.687 72.445 35.808 129.444 108.187 126.48 113.09-6.674 172.829-170.053 172.829-168.83V796H827.572c0-1.06-40.884-12.18-85.103-51.913-44.218-39.385-91.773-107.381-105.112-214.174-34.045-269.742-124.493 58.085-277.224 105.833-76.366 24.001-127.89-26.717-170.58-82.6-42.692-56.35-76.55-117.866-117.586-126.298C47.228 421.58 22.49 429.82 0 444.538" fill="url(#c)" opacity=".263" transform="translate(-7 -11)"/><path d="M743.206 514.062c17.726 16.49 34.914 29.751 49.155 39.77h305.642V136.674c0-1.293-14.95 54.802-44.05 109.809-29.098 55.387-72.348 109.683-128.95 113.57-72.452 2.771-90.59-54.069-108.294-130.669C799.005 154.137 781.733 59.131 711.015 16.8c-75.956-42.375-124.336 3.325-171.626 49.671-47.288 48.768-93.487 98.183-165.08 119.14-61.586 17.888-86.035-.736-105.368-30.111-19.334-29.052-33.553-68.856-74.674-85.866-41.122-15.508-89.688-6.991-127.973 1.126C28.007 79.59.003 88.025.003 88.915L0 212.045c22.513-11.883 47.275-21.076 72.038-22.605 41.077-2.974 74.969 24.592 117.702 61.731 42.734 35.881 94.309 81.336 170.75 85.087 38.221.866 72.546-8.995 103.065-25.826 30.52-16.494 57.234-39.957 80.237-58.542 46.004-37.287 77.158-53.29 94.197 67.608 13.353 91.27 60.954 152.984 105.217 194.564" fill="url(#d)" opacity=".105" transform="translate(-7 -11)"/></g></g></svg>