<?xml version="1.0" encoding="UTF-8"?>
<svg width="1091px" height="397px" viewBox="0 0 1091 397" version="1.1" xmlns="http://www.w3.org/2000/svg" xmlns:xlink="http://www.w3.org/1999/xlink">
    <!-- Generator: Sketch 51.3 (57544) - http://www.bohemiancoding.com/sketch -->
    <title>Group 56</title>
    <desc>Created with Sketch.</desc>
    <defs>
        <rect id="path-1" x="0" y="0" width="1098" height="397"></rect>
        <linearGradient x1="100%" y1="0%" x2="0%" y2="100%" id="linearGradient-3">
            <stop stop-color="#68A5FF" offset="0%"></stop>
            <stop stop-color="#4BE7C4" stop-opacity="0.7" offset="100%"></stop>
        </linearGradient>
        <linearGradient x1="100%" y1="-2.5923533%" x2="6.65413128%" y2="104.376999%" id="linearGradient-4">
            <stop stop-color="#3B407E" offset="0%"></stop>
            <stop stop-color="#222550" offset="100%"></stop>
        </linearGradient>
    </defs>
    <g id="Page-1" stroke="none" stroke-width="1" fill="none" fill-rule="evenodd">
        <g id="LP-cao-đẳng-Fix" transform="translate(-197.000000, -7163.000000)">
            <g id="Group-32" transform="translate(0.000000, 2557.000000)">
                <g id="Group-29" transform="translate(0.000000, 4599.000000)">
                    <g id="Banner-FB-Copy" transform="translate(145.000000, 0.000000)">
                        <g id="Group-56-+-Group-56-Mask">
                            <g transform="translate(-118.000000, 0.000000)">
                                <g transform="translate(118.000000, 1.000000)">
                                    <g id="Group-56" transform="translate(52.000000, 6.000000)">
                                        <mask id="mask-2" fill="white">
                                            <use xlink:href="#path-1"></use>
                                        </mask>
                                        <g id="Mask"></g>
                                        <g mask="url(#mask-2)" id="Fill-1">
                                            <g transform="translate(-7.000000, -11.000000)">
                                                <path d="M0.00274227752,99.7777859 C0.00274227752,99.1004433 111.912346,79.3286224 194.074636,190.186105 C276.236013,303.94766 250.890056,484.371239 373.936963,403.923786 C445.460131,359.419364 491.612662,292.992261 538.85479,244.078257 C586.096005,196.252023 634.428647,165.939801 710.310208,218.811826 C780.957675,269.395877 798.212086,356.960455 815.898862,429.077783 C833.585637,501.523271 851.706607,558.521509 924.08628,555.557107 C1037.17506,548.884232 1096.91466,385.504822 1096.91466,386.728791 L1096.91466,796 L827.571823,796 C827.571823,794.940567 786.688121,783.819717 742.468896,744.086858 C698.250585,704.702269 650.695837,636.705669 637.357399,529.913156 C603.312024,260.170856 512.864398,587.99825 360.133252,635.745872 C283.767221,659.747199 232.243483,609.028776 189.552621,553.146645 C146.860844,496.795584 113.002858,435.279901 71.9665031,426.848312 C47.2284175,421.579482 22.490332,429.819112 0,444.53783" fill="url(#linearGradient-3)" opacity="0.263337054"></path>
                                                <path d="M743.206178,514.061811 C760.932477,530.55286 778.119841,543.813043 792.360904,553.832296 L1098.003,553.832296 L1098.003,136.673634 C1098.003,135.380738 1083.05373,191.475741 1053.95306,246.482809 C1024.85514,301.869602 981.604908,356.165715 925.00391,360.053551 C852.551448,362.824171 834.413399,305.984358 816.70906,229.3842 C799.004721,154.137328 781.733177,59.1310257 711.01464,16.7994559 C635.058642,-25.576034 586.678921,20.1236517 539.388965,66.4702424 C492.100839,115.237924 445.901564,164.653425 374.308287,185.61059 C312.723283,203.497929 288.274477,184.874015 268.940522,155.498848 C249.606568,126.446676 235.38838,86.6432521 194.267355,69.6333981 C153.144501,54.1250595 104.579034,62.6418815 66.2935954,70.7588484 C28.0072415,79.5913455 0.00274500064,88.0249024 0.00274500064,88.9151976 L0,212.045861 C22.5126652,200.161838 47.275316,190.968831 72.0379667,189.439866 C113.115071,186.466115 147.006679,214.032327 189.739934,251.17127 C232.474104,287.052089 284.049006,332.507469 360.490869,336.258055 C398.711343,337.123645 433.035746,327.262688 463.554663,310.432174 C494.074495,293.93838 520.788841,270.47503 543.791946,251.89046 C589.796327,214.603287 620.950254,198.599933 637.989388,319.497996 C651.341986,410.767437 698.943042,472.482372 743.206178,514.061811" fill="url(#linearGradient-4)" opacity="0.104575893"></path>
                                            </g>
                                        </g>
                                    </g>
                                </g>
                            </g>
                        </g>
                    </g>
                </g>
            </g>
        </g>
    </g>
</svg>